<svg xmlns="http://www.w3.org/2000/svg" width="1600" height="650" viewBox="0 0 1600 650" role="img" aria-label="After the Parks Pocket Map Companion horizontal logo lockup" >

<defs>
  <linearGradient id="goldGrad" x1="0" y1="0" x2="1" y2="1">
    <stop offset="0" stop-color="#FFF3A6"/>
    <stop offset="0.42" stop-color="#FFC94A"/>
    <stop offset="1" stop-color="#B76F15"/>
  </linearGradient>
  <radialGradient id="glowGrad" cx="50%" cy="45%" r="65%">
    <stop offset="0" stop-color="#FFFBE8"/>
    <stop offset="0.35" stop-color="#FFE36D"/>
    <stop offset="0.85" stop-color="#F2A326"/>
    <stop offset="1" stop-color="#B56F17"/>
  </radialGradient>
  <linearGradient id="navyGrad" x1="0" y1="0" x2="1" y2="1">
    <stop offset="0" stop-color="#173B60"/>
    <stop offset="0.55" stop-color="#0B2340"/>
    <stop offset="1" stop-color="#041226"/>
  </linearGradient>
  <linearGradient id="aquaGrad" x1="0" y1="0" x2="1" y2="1">
    <stop offset="0" stop-color="#E9FCFF"/>
    <stop offset="1" stop-color="#5BB8C4"/>
  </linearGradient>
  <linearGradient id="daySky" x1="0" y1="0" x2="1" y2="1">
    <stop offset="0" stop-color="#FDF6D2"/>
    <stop offset="0.4" stop-color="#BEEAF0"/>
    <stop offset="1" stop-color="#7EC7D2"/>
  </linearGradient>
  <linearGradient id="twilight" x1="0" y1="0" x2="1" y2="1">
    <stop offset="0" stop-color="#315A86"/>
    <stop offset="0.55" stop-color="#16385E"/>
    <stop offset="1" stop-color="#091B32"/>
  </linearGradient>
  <filter id="softShadow" x="-20%" y="-20%" width="140%" height="150%">
    <feDropShadow dx="0" dy="12" stdDeviation="10" flood-color="#071426" flood-opacity="0.18"/>
  </filter>
  <filter id="tinyShadow" x="-30%" y="-30%" width="160%" height="160%">
    <feDropShadow dx="0" dy="5" stdDeviation="4" flood-color="#071426" flood-opacity="0.22"/>
  </filter>
  <filter id="goldGlow" x="-70%" y="-70%" width="240%" height="240%">
    <feGaussianBlur stdDeviation="5" result="blur"/>
    <feColorMatrix in="blur" type="matrix" values="1 0 0 0 1  0 0.73 0 0 0.55  0 0 0.15 0 0.1  0 0 0 0.75 0" result="glow"/>
    <feMerge><feMergeNode in="glow"/><feMergeNode in="SourceGraphic"/></feMerge>
  </filter>
  <style>
    .wordmark { font-family: Georgia, 'Times New Roman', serif; fill: #0B2340; }
    .tagline { font-family: Avenir, Montserrat, Arial, sans-serif; fill: #17727F; letter-spacing: .04em; }
    .smallcaps { font-family: Avenir, Montserrat, Arial, sans-serif; letter-spacing: .16em; font-weight: 700; }
    .navy-stroke { stroke:#0B2340; stroke-linecap:round; stroke-linejoin:round; }
    .gold-stroke { stroke:#E9AD2E; stroke-linecap:round; stroke-linejoin:round; }
  </style>
</defs>

<g transform="translate(54 110) scale(0.62)" filter="url(#softShadow)">
  <polygon points="40,210 250,118 380,156 350,412 16,386" fill="#F9F0D9" stroke="#A9C7BD" stroke-width="3"/>
  <polygon points="250,118 500,148 506,410 350,412 380,156" fill="#F3E8CC" stroke="#A9C7BD" stroke-width="3"/>
  <polygon points="500,148 748,108 820,396 506,410" fill="#F7EED7" stroke="#A9C7BD" stroke-width="3"/>
  <polygon points="748,108 984,198 1026,386 820,396" fill="#F9F0D9" stroke="#A9C7BD" stroke-width="3"/>

  <polygon points="54,212 246,138 368,168 344,381 45,360" fill="url(#daySky)" opacity=".65"/>
  <polygon points="260,136 492,166 492,389 362,392 390,172" fill="#DDF3DA" opacity=".86"/>
  <polygon points="512,166 736,132 792,378 512,390" fill="#D8F0E8" opacity=".9"/>
  <polygon points="760,132 970,212 1000,363 806,378" fill="#16385E" opacity=".80"/>

  <!-- pool stop -->
  <ellipse cx="158" cy="292" rx="86" ry="42" fill="#76C9D4" stroke="#fff" stroke-width="6"/>
  <ellipse cx="158" cy="292" rx="55" ry="22" fill="none" stroke="#A9EEF1" stroke-width="4" opacity=".8"/>
  <path d="M112 256 C130 230 168 226 200 250" fill="none" stroke="#6FA34E" stroke-width="8" opacity=".45"/>
  <path d="M82 342 C120 324 160 326 206 346" fill="none" stroke="#6FA34E" stroke-width="12" opacity=".5"/>

  <!-- left lower activity / play -->
  <path d="M92 363 C111 332 137 324 170 314 C199 303 228 278 254 242" fill="none" stroke="#C99045" stroke-width="10" stroke-linecap="round" opacity=".5"/>
  <rect x="110" y="326" width="64" height="10" rx="5" fill="#B57A3A"/><line x1="118" y1="326" x2="100" y2="360" stroke="#B57A3A" stroke-width="6"/><line x1="166" y1="326" x2="184" y2="360" stroke="#B57A3A" stroke-width="6"/>

  <!-- craft table -->
  <circle cx="415" cy="294" r="64" fill="#7ECBD1" stroke="#fff" stroke-width="6"/>
  <rect x="387" y="268" width="74" height="48" rx="7" fill="#FFF9E8" stroke="#E8C877" stroke-width="3"/>
  <circle cx="406" cy="288" r="8" fill="#E67A54"/><circle cx="424" cy="291" r="7" fill="#E9AD2E"/><circle cx="442" cy="286" r="7" fill="#5BB8C4"/>
  <path d="M398 304 C422 294 440 308 454 300" stroke="#E9AD2E" stroke-width="3" fill="none"/>

  <!-- snack hut -->
  <g transform="translate(596 264)">
    <rect x="0" y="40" width="102" height="82" rx="8" fill="#F5B36A" stroke="#BC6E35" stroke-width="4"/>
    <path d="M-8 42 L50 0 L112 42 Z" fill="#F28A62" stroke="#BC6E35" stroke-width="4"/>
    <rect x="18" y="66" width="66" height="45" rx="5" fill="#FFF3D2"/>
    <g class="outlined-text" fill="#fff" aria-hidden="true" data-text-source="SNACK"><path d="M31.798000000000002 20.212Q31.338 19.545 30.567500000000003 19.2345Q29.797 18.924 28.945999999999998 18.924Q28.439999999999998 18.924 27.9685 19.039Q27.497 19.154 27.1175 19.407Q26.738 19.66 26.508 20.0625Q26.278 20.465 26.278 21.017Q26.278 21.845 26.853 22.282Q27.428 22.719 28.279 23.041Q29.13 23.363 30.142 23.662Q31.154 23.961 32.005 24.49Q32.856 25.019 33.431 25.893Q34.006 26.767 34.006 28.216Q34.006 29.527 33.522999999999996 30.5045Q33.04 31.482 32.2235 32.126000000000005Q31.407 32.77 30.326 33.092Q29.245 33.414 28.049 33.414Q26.531 33.414 25.128 32.908Q23.725 32.402 22.713 31.206L24.898 29.09Q25.427 29.895 26.2895 30.3435Q27.152 30.792 28.118000000000002 30.792Q28.624 30.792 29.13 30.654Q29.636 30.516 30.049999999999997 30.24Q30.464 29.964 30.717 29.5385Q30.97 29.113 30.97 28.561Q30.97 27.664 30.395 27.181Q29.82 26.698 28.969 26.3645Q28.118000000000002 26.031 27.106 25.732Q26.094 25.433 25.243000000000002 24.9155Q24.392 24.398 23.817 23.5355Q23.242 22.673000000000002 23.242 21.224Q23.242 19.959 23.759500000000003 19.039Q24.277 18.119 25.116500000000002 17.5095Q25.956 16.9 27.037 16.601Q28.118000000000002 16.302 29.245 16.302Q30.533 16.302 31.7405 16.692999999999998Q32.948 17.084 33.914 17.981Z"/><path d="M37.019 16.716H40.86L48.748999999999995 28.814H48.795V16.716H51.693V33.0H48.013L39.963 20.511000000000003H39.917V33.0H37.019Z"/><path d="M60.593999999999994 16.716H63.101L70.116 33.0H66.804L65.286 29.274H58.224999999999994L56.753 33.0H53.51ZM64.274 26.79 61.766999999999996 20.166 59.214 26.79Z"/><path d="M83.111 20.534Q82.214 19.567999999999998 81.3745 19.246Q80.535 18.924 79.684 18.924Q78.419 18.924 77.3955 19.3725Q76.372 19.820999999999998 75.636 20.6145Q74.9 21.408 74.4975 22.466Q74.095 23.524 74.095 24.743000000000002Q74.095 26.054000000000002 74.4975 27.158Q74.9 28.262 75.636 29.067Q76.372 29.872 77.3955 30.332Q78.419 30.792 79.684 30.792Q80.673 30.792 81.6045 30.320500000000003Q82.536 29.849 83.341 28.814L85.733 30.516Q84.629 32.034 83.042 32.724000000000004Q81.455 33.414 79.661 33.414Q77.775 33.414 76.1995 32.804500000000004Q74.624 32.195 73.4855 31.0795Q72.347 29.964 71.703 28.4Q71.059 26.836 71.059 24.927Q71.059 22.972 71.703 21.3735Q72.347 19.775 73.4855 18.648Q74.624 17.521 76.1995 16.9115Q77.775 16.302 79.661 16.302Q81.31700000000001 16.302 82.73150000000001 16.8885Q84.146 17.475 85.365 18.878Z"/><path d="M87.68799999999999 16.716H90.586V23.616H90.72399999999999L97.463 16.716H101.37299999999999L93.75999999999999 24.237000000000002L101.87899999999999 33.0H97.80799999999999L90.747 24.996000000000002H90.586V33.0H87.68799999999999Z"/></g>
  </g>

  <!-- boat / explore -->
  <g transform="translate(800 230)">
    <path d="M0 68 C54 96 130 88 168 58 L151 94 C98 118 33 104 0 68 Z" fill="#FDF2D3" stroke="#0B2340" stroke-width="5"/>
    <rect x="52" y="19" width="82" height="52" rx="8" fill="#fff" stroke="#0B2340" stroke-width="4"/>
    <path d="M65 16 L90 -12 L124 16" fill="#F0C053" stroke="#0B2340" stroke-width="4"/>
    <path d="M-10 102 C40 83 90 121 170 94" fill="none" stroke="#5BB8C4" stroke-width="7" opacity=".8"/>
  </g>

  <!-- twilight cozy room -->
  <g transform="translate(825 268)"><rect x="0" y="22" width="118" height="92" rx="10" fill="#F6E2B8" opacity=".95"/><path d="M0 22 L58 -18 L118 22" fill="#294E74"/><rect x="30" y="48" width="60" height="44" rx="6" fill="#CBEAF0"/><path d="M51 59 C63 46 76 64 62 76 C58 79 54 82 51 85 C48 82 44 79 40 76 C27 64 39 46 51 59 Z" fill="#6AB3BA" opacity=".8"/></g>

  <!-- route line -->
  <path d="M132 250 C230 160 336 184 420 258 C508 338 604 322 686 274 C772 224 855 245 904 296 C938 331 933 362 892 373 C814 394 677 365 575 324 C454 276 341 282 212 338" fill="none" stroke="#FFE063" stroke-width="10" stroke-linecap="round" stroke-dasharray="1 22" filter="url(#goldGlow)"/>
  <path d="M132 250 C230 160 336 184 420 258 C508 338 604 322 686 274 C772 224 855 245 904 296 C938 331 933 362 892 373 C814 394 677 365 575 324 C454 276 341 282 212 338" fill="none" stroke="#E9AD2E" stroke-width="4" stroke-linecap="round"/>

  <g opacity="0.95" filter="url(#goldGlow)">
<circle cx="702" cy="252.5" r="6.75" fill="#E9AD2E"/>
<circle cx="688.5" cy="239.0" r="4.5" fill="#E9AD2E"/>
<circle cx="715.5" cy="239.0" r="4.5" fill="#E9AD2E"/>
</g>
  <g transform="translate(120 238) scale(0.55)" filter="url(#tinyShadow)">
<path d="M0,-34 C20,-34 34,-20 34,-1 C34,24 0,48 0,48 C0,48 -34,24 -34,-1 C-34,-20 -20,-34 0,-34 Z" fill="#FFFFFF" stroke="#E9AD2E" stroke-width="4"/>
<circle cx="0" cy="-3" r="17" fill="#FFF3BF"/>
<path d="M-9.6,-3 C-4.8,-7.2 0.0,1.2000000000000002 5.3999999999999995,-3 C9.6,-6.0 12.0,-3 12.0,-3" fill="none" stroke="#5BB8C4" stroke-width="4" stroke-linecap="round"/>
</g>
  <g transform="translate(420 225) scale(0.55)" filter="url(#tinyShadow)">
<path d="M0,-34 C20,-34 34,-20 34,-1 C34,24 0,48 0,48 C0,48 -34,24 -34,-1 C-34,-20 -20,-34 0,-34 Z" fill="#FFFFFF" stroke="#E9AD2E" stroke-width="4"/>
<circle cx="0" cy="-3" r="17" fill="#FFF3BF"/>
<g opacity="1">
<path d="M0 -15 L2.42 -6.42 L11 -4 L2.42 -1.58 L0 7 L-2.42 -1.58 L-11 -4 L-2.42 -6.42 Z" fill="#E67A54"/>
</g>
</g>
  <g transform="translate(705 238) scale(0.55)" filter="url(#tinyShadow)">
<path d="M0,-34 C20,-34 34,-20 34,-1 C34,24 0,48 0,48 C0,48 -34,24 -34,-1 C-34,-20 -20,-34 0,-34 Z" fill="#FFFFFF" stroke="#E9AD2E" stroke-width="4"/>
<circle cx="0" cy="-3" r="17" fill="#FFF3BF"/>
<circle cx="0" cy="-4" r="10" fill="#E9AD2E"/><circle cx="-7" cy="-7" r="3" fill="#fff" opacity=".8"/><circle cx="7" cy="-7" r="3" fill="#fff" opacity=".8"/>
</g>
  <g transform="translate(875 217) scale(0.55)" filter="url(#tinyShadow)">
<path d="M0,-34 C20,-34 34,-20 34,-1 C34,24 0,48 0,48 C0,48 -34,24 -34,-1 C-34,-20 -20,-34 0,-34 Z" fill="#FFFFFF" stroke="#E9AD2E" stroke-width="4"/>
<circle cx="0" cy="-3" r="17" fill="#FFF3BF"/>
<path d="M-15 3 C-2 -10 14 -2 16 12" stroke="#5BB8C4" stroke-width="5" fill="none" stroke-linecap="round"/>
</g>
</g><g transform="translate(68 58) scale(0.78)" filter="url(#tinyShadow)">
  <ellipse cx="70" cy="65" rx="58" ry="24" fill="#DFFBFF" opacity="0.58" stroke="#5BB8C4" stroke-width="3" transform="rotate(-31 70 65)"/>
  <ellipse cx="132" cy="66" rx="58" ry="24" fill="#DFFBFF" opacity="0.58" stroke="#5BB8C4" stroke-width="3" transform="rotate(24 132 66)"/>
  <path d="M24 66 C50 44 88 44 116 72" fill="none" stroke="#A9DEE5" stroke-width="1.7" opacity=".72"/>
  <path d="M98 63 C126 43 158 48 184 72" fill="none" stroke="#A9DEE5" stroke-width="1.7" opacity=".72"/>
  <ellipse cx="112" cy="122" rx="34" ry="53" transform="rotate(-20 112 122)" fill="url(#glowGrad)" filter="url(#goldGlow)"/>
  <path d="M88 92 C95 108 130 108 144 92" fill="#143052"/>
  <circle cx="86" cy="68" r="38" fill="url(#navyGrad)"/>
  <circle cx="74" cy="62" r="13" fill="#fff"/><circle cx="103" cy="62" r="13" fill="#fff"/>
  <circle cx="79" cy="65" r="7" fill="#081426"/><circle cx="98" cy="65" r="7" fill="#081426"/>
  <circle cx="82" cy="62" r="2.5" fill="#fff"/><circle cx="101" cy="62" r="2.5" fill="#fff"/>
  <path d="M76 84 C86 93 100 92 110 84" fill="none" stroke="#fff" stroke-width="3" stroke-linecap="round" opacity=".9"/>
  <path d="M73 38 C62 17 43 17 38 3" fill="none" stroke="#06172B" stroke-width="4" stroke-linecap="round"/>
  <path d="M98 38 C112 14 132 15 139 2" fill="none" stroke="#06172B" stroke-width="4" stroke-linecap="round"/>
  <circle cx="38" cy="3" r="8" fill="url(#glowGrad)" filter="url(#goldGlow)"/>
  <circle cx="139" cy="2" r="8" fill="url(#glowGrad)" filter="url(#goldGlow)"/>
  <path d="M69 104 C45 108 32 123 18 128" fill="none" stroke="#06172B" stroke-width="5" stroke-linecap="round"/>
  <path d="M102 102 C120 110 136 121 154 120" fill="none" stroke="#06172B" stroke-width="5" stroke-linecap="round"/>
  <path d="M78 101 C63 122 51 136 37 145" fill="none" stroke="#06172B" stroke-width="4" stroke-linecap="round"/>
  <path d="M118 102 C132 122 146 132 159 141" fill="none" stroke="#06172B" stroke-width="4" stroke-linecap="round"/>
  <path d="M63 96 C83 112 107 111 126 96 L115 119 C99 126 84 124 72 118 Z" fill="#5BB8C4" stroke="#0B2340" stroke-width="2"/>
</g><g transform="translate(755 275) scale(0.88)">
  <g class="outlined-text wordmark" fill="#0B2340" aria-hidden="true" data-text-source="After"><path d="M88.8125 0.0H51.875V-4.4375Q56.75 -4.75 59.96875 -5.6875Q63.1875 -6.625 63.1875 -8.0Q63.1875 -8.5625 63.0625 -9.375Q62.9375 -10.1875 62.6875 -10.8125L55.3125 -30.6875H24.25Q22.5 -26.3125 21.40625 -23.0625Q20.3125 -19.8125 19.4375 -17.0625Q18.625 -14.375 18.3125 -12.6875Q18.0 -11.0 18.0 -9.9375Q18.0 -7.4375 21.9375 -6.0625Q25.875 -4.6875 30.8125 -4.4375V0.0H-2.5625V-4.4375Q-0.9375 -4.5625 1.5 -5.15625Q3.9375 -5.75 5.5 -6.75Q8.0 -8.4375 9.375 -10.28125Q10.75 -12.125 12.0625 -15.375Q18.75 -32.0625 26.8125 -52.875Q34.875 -73.6875 41.1875 -89.9375H46.1875L75.75 -13.4375Q76.6875 -11.0 77.875 -9.5Q79.0625 -8.0 81.1875 -6.5625Q82.625 -5.6875 84.9375 -5.09375Q87.25 -4.5 88.8125 -4.4375ZM53.0625 -36.25 39.625 -70.625 26.4375 -36.25Z"/><path d="M136.25 -89.3125Q136.25 -86.5 134.75 -84.5625Q133.25 -82.625 130.1875 -82.625Q128.25 -82.625 126.78125 -83.4375Q125.3125 -84.25 124.0625 -85.625Q122.8125 -87.0 121.75 -88.75Q120.6875 -90.5 119.9375 -91.5625Q115.75 -91.375 113.46875 -85.71875Q111.1875 -80.0625 111.1875 -67.6875V-61.375H127.0625V-55.375H111.1875V-11.125Q111.1875 -8.9375 112.03125 -7.5625Q112.875 -6.1875 114.6875 -5.5Q116.1875 -4.9375 118.6875 -4.59375Q121.1875 -4.25 123.0 -4.125V0.0H90.5V-4.125Q91.9375 -4.25 93.46875 -4.375Q95.0 -4.5 96.125 -4.875Q97.875 -5.4375 98.71875 -6.84375Q99.5625 -8.25 99.5625 -10.5V-55.375H87.375V-61.375H99.5625V-65.3125Q99.5625 -79.375 106.84375 -88.09375Q114.125 -96.8125 125.0625 -96.8125Q130.625 -96.8125 133.4375 -94.625Q136.25 -92.4375 136.25 -89.3125Z"/><path d="M170.0625 -2.6875Q166.0 -1.0 162.375 0.15625Q158.75 1.3125 153.5 1.3125Q145.75 1.3125 142.59375 -2.59375Q139.4375 -6.5 139.4375 -13.625V-55.375H128.3125V-61.375H139.6875V-80.5625H151.0625V-61.375H168.75V-55.375H151.1875V-20.9375Q151.1875 -17.0625 151.46875 -14.46875Q151.75 -11.875 152.8125 -9.9375Q153.8125 -8.125 155.8125 -7.1875Q157.8125 -6.25 161.1875 -6.25Q162.75 -6.25 165.78125 -6.53125Q168.8125 -6.8125 170.0625 -7.25Z"/><path d="M230.9375 -14.5Q227.0625 -7.125 220.5625 -2.75Q214.0625 1.625 205.625 1.625Q198.1875 1.625 192.59375 -1.0Q187.0 -3.625 183.375 -8.125Q179.75 -12.625 177.96875 -18.625Q176.1875 -24.625 176.1875 -31.3125Q176.1875 -37.3125 178.09375 -43.09375Q180.0 -48.875 183.6875 -53.5Q187.25 -57.9375 192.53125 -60.65625Q197.8125 -63.375 204.375 -63.375Q211.125 -63.375 215.9375 -61.25Q220.75 -59.125 223.75 -55.4375Q226.625 -51.9375 228.03125 -47.1875Q229.4375 -42.4375 229.4375 -36.875V-32.75H188.625Q188.625 -26.6875 189.78125 -21.75Q190.9375 -16.8125 193.4375 -13.0625Q195.875 -9.4375 199.8125 -7.34375Q203.75 -5.25 209.1875 -5.25Q214.75 -5.25 218.78125 -7.84375Q222.8125 -10.4375 226.5625 -17.1875ZM217.125 -38.0Q217.125 -41.5 216.53125 -45.5Q215.9375 -49.5 214.625 -52.1875Q213.1875 -55.0625 210.6875 -56.875Q208.1875 -58.6875 204.25 -58.6875Q197.6875 -58.6875 193.34375 -53.21875Q189.0 -47.75 188.625 -38.0Z"/><path d="M285.25 -53.6875Q285.25 -50.5 283.6875 -48.03125Q282.125 -45.5625 278.875 -45.5625Q275.375 -45.5625 273.53125 -47.375Q271.6875 -49.1875 271.6875 -51.375Q271.6875 -52.75 271.90625 -53.875Q272.125 -55.0 272.3125 -56.125Q269.375 -56.125 265.4375 -53.75Q261.5 -51.375 258.75 -47.0V-11.125Q258.75 -8.9375 259.59375 -7.5625Q260.4375 -6.1875 262.25 -5.5Q263.8125 -4.875 266.28125 -4.5625Q268.75 -4.25 270.5625 -4.125V0.0H238.0625V-4.125Q239.5 -4.25 241.03125 -4.375Q242.5625 -4.5 243.6875 -4.875Q245.4375 -5.4375 246.28125 -6.84375Q247.125 -8.25 247.125 -10.5V-48.5625Q247.125 -50.5 246.21875 -52.375Q245.3125 -54.25 243.6875 -55.375Q242.5 -56.125 240.875 -56.46875Q239.25 -56.8125 237.375 -56.9375V-61.0L257.875 -62.375L258.75 -61.5V-52.8125H259.0625Q262.9375 -57.875 267.6875 -60.5Q272.4375 -63.125 276.375 -63.125Q280.3125 -63.125 282.78125 -60.5625Q285.25 -58.0 285.25 -53.6875Z"/></g>
  <g class="outlined-text wordmark" fill="#0B2340" aria-hidden="true" data-text-source="the"><path d="M295.7646484375 -3.3232421875Q292.703125 -3.3232421875 291.28515625 -4.56396484375Q289.8671875 -5.8046875 289.8671875 -8.125Q289.8671875 -8.8662109375 289.9638671875 -9.52685546875Q290.060546875 -10.1875 290.2216796875 -11.025390625L295.216796875 -32.552734375H289.48046875L290.1572265625 -35.4853515625H296.0224609375L298.2783203125 -44.927734375H304.0791015625L301.8876953125 -35.4853515625H310.87890625L310.2021484375 -32.552734375H301.275390625L297.150390625 -14.7958984375Q296.8603515625 -13.5712890625 296.6669921875 -12.42724609375Q296.4736328125 -11.283203125 296.4736328125 -10.4775390625Q296.4736328125 -8.705078125 297.35986328125 -7.88330078125Q298.24609375 -7.0615234375 300.56640625 -7.0615234375Q301.404296875 -7.0615234375 302.9189453125 -7.27099609375Q304.43359375 -7.48046875 305.271484375 -7.802734375L304.7236328125 -5.4501953125Q302.4677734375 -4.580078125 300.4697265625 -3.95166015625Q298.4716796875 -3.3232421875 295.7646484375 -3.3232421875Z"/><path d="M344.1689453125 -7.73828125 343.685546875 -5.67578125Q340.78515625 -4.515625 339.173828125 -3.98388671875Q337.5625 -3.4521484375 335.9189453125 -3.4521484375Q333.3408203125 -3.4521484375 332.0517578125 -4.78955078125Q330.7626953125 -6.126953125 330.7626953125 -8.0927734375Q330.7626953125 -8.8017578125 330.8916015625 -9.65576171875Q331.0205078125 -10.509765625 331.310546875 -11.669921875L334.46875 -23.6904296875Q334.8232421875 -25.076171875 335.03271484375 -26.2041015625Q335.2421875 -27.33203125 335.2421875 -28.0087890625Q335.2421875 -30.16796875 334.2109375 -31.4248046875Q333.1796875 -32.681640625 331.1494140625 -32.681640625Q329.0869140625 -32.681640625 326.68603515625 -31.3603515625Q324.28515625 -30.0390625 322.1259765625 -27.654296875L316.6796875 -4.0H310.685546875L320.2568359375 -45.4755859375Q320.41796875 -46.216796875 320.53076171875 -46.732421875Q320.6435546875 -47.248046875 320.6435546875 -47.828125Q320.6435546875 -48.98828125 320.2568359375 -49.61669921875Q319.8701171875 -50.2451171875 319.1611328125 -50.5673828125Q318.548828125 -50.857421875 317.4853515625 -50.9541015625Q316.421875 -51.05078125 315.3583984375 -51.1796875L315.8095703125 -53.1455078125L327.765625 -53.88671875L328.087890625 -53.4033203125L322.931640625 -31.1025390625H323.060546875Q326.3798828125 -33.77734375 328.990234375 -35.14697265625Q331.6005859375 -36.5166015625 334.919921875 -36.5166015625Q338.013671875 -36.5166015625 339.75390625 -34.72802734375Q341.494140625 -32.939453125 341.494140625 -30.0390625Q341.494140625 -29.458984375 341.31689453125 -27.9765625Q341.1396484375 -26.494140625 340.7529296875 -25.0439453125L338.0458984375 -14.69921875Q337.7880859375 -13.66796875 337.498046875 -12.33056640625Q337.2080078125 -10.9931640625 337.2080078125 -10.251953125Q337.2080078125 -8.4150390625 338.013671875 -7.75439453125Q338.8193359375 -7.09375 340.65625 -7.09375Q341.2685546875 -7.09375 342.41259765625 -7.30322265625Q343.556640625 -7.5126953125 344.1689453125 -7.73828125Z"/><path d="M375.8798828125 -29.8134765625Q375.8798828125 -26.3974609375 373.73681640625 -23.9482421875Q371.59375 -21.4990234375 367.5009765625 -20.048828125Q364.50390625 -18.953125 361.4423828125 -18.2763671875Q358.380859375 -17.599609375 354.6748046875 -17.1484375Q354.6748046875 -12.056640625 356.56005859375 -9.36572265625Q358.4453125 -6.6748046875 362.0869140625 -6.6748046875Q365.3095703125 -6.6748046875 367.77490234375 -8.2861328125Q370.240234375 -9.8974609375 372.625 -13.087890625L374.4619140625 -11.734375Q371.8837890625 -7.802734375 368.0166015625 -5.4501953125Q364.1494140625 -3.09765625 359.9921875 -3.09765625Q354.2880859375 -3.09765625 351.27490234375 -6.2880859375Q348.26171875 -9.478515625 348.26171875 -15.34375Q348.26171875 -19.404296875 349.53466796875 -23.09423828125Q350.8076171875 -26.7841796875 353.2568359375 -29.845703125Q355.6416015625 -32.8427734375 359.10595703125 -34.6796875Q362.5703125 -36.5166015625 366.759765625 -36.5166015625Q371.400390625 -36.5166015625 373.64013671875 -34.63134765625Q375.8798828125 -32.74609375 375.8798828125 -29.8134765625ZM369.9501953125 -30.619140625Q369.9501953125 -31.8759765625 369.595703125 -32.60107421875Q369.2412109375 -33.326171875 368.693359375 -33.6806640625Q368.11328125 -34.0673828125 367.46875 -34.1640625Q366.82421875 -34.2607421875 366.1474609375 -34.2607421875Q362.2802734375 -34.2607421875 359.00927734375 -30.0068359375Q355.73828125 -25.7529296875 354.8681640625 -19.404296875Q357.1240234375 -19.7265625 359.9599609375 -20.32275390625Q362.7958984375 -20.9189453125 364.6650390625 -21.8857421875Q367.33984375 -23.271484375 368.64501953125 -25.44677734375Q369.9501953125 -27.6220703125 369.9501953125 -30.619140625Z"/></g>
  <g class="outlined-text wordmark" fill="#0B2340" aria-hidden="true" data-text-source="Parks"><path d="M499.6875 -64.724609375Q499.6875 -58.00390625 497.0537109375 -52.8271484375Q494.419921875 -47.650390625 489.7578125 -44.259765625Q485.15625 -40.869140625 479.646484375 -39.294921875Q474.13671875 -37.720703125 467.9609375 -37.720703125H458.333984375V-11.685546875Q458.333984375 -9.56640625 459.0302734375 -7.9619140625Q459.7265625 -6.357421875 461.90625 -5.509765625Q462.99609375 -5.0859375 465.7509765625 -4.72265625Q468.505859375 -4.359375 470.806640625 -4.298828125V0.0H433.93359375V-4.298828125Q435.38671875 -4.419921875 438.1416015625 -4.72265625Q440.896484375 -5.025390625 441.986328125 -5.509765625Q443.802734375 -6.296875 444.6201171875 -7.810546875Q445.4375 -9.32421875 445.4375 -11.685546875V-73.685546875Q445.4375 -75.8046875 444.83203125 -77.5Q444.2265625 -79.1953125 441.986328125 -80.04296875Q439.685546875 -80.830078125 437.4150390625 -81.1630859375Q435.14453125 -81.49609375 433.509765625 -81.6171875V-85.916015625H472.744140625Q484.732421875 -85.916015625 492.2099609375 -80.1337890625Q499.6875 -74.3515625 499.6875 -64.724609375ZM481.28125 -50.072265625Q483.33984375 -52.978515625 484.005859375 -56.0966796875Q484.671875 -59.21484375 484.671875 -61.697265625Q484.671875 -65.1484375 483.8544921875 -68.720703125Q483.037109375 -72.29296875 481.0390625 -74.95703125Q478.919921875 -77.802734375 475.46875 -79.376953125Q472.017578125 -80.951171875 466.87109375 -80.951171875H458.333984375V-42.98828125H464.509765625Q471.048828125 -42.98828125 475.1357421875 -45.0166015625Q479.22265625 -47.044921875 481.28125 -50.072265625Z"/><path d="M564.533203125 -1.08984375Q561.6875 -0.060546875 559.5380859375 0.5751953125Q557.388671875 1.2109375 554.6640625 1.2109375Q549.94140625 1.2109375 547.1259765625 -0.9990234375Q544.310546875 -3.208984375 543.5234375 -7.447265625H543.16015625Q539.224609375 -3.087890625 534.7138671875 -0.787109375Q530.203125 1.513671875 523.845703125 1.513671875Q517.125 1.513671875 512.7958984375 -2.603515625Q508.466796875 -6.720703125 508.466796875 -13.380859375Q508.466796875 -16.83203125 509.435546875 -19.556640625Q510.404296875 -22.28125 512.341796875 -24.4609375Q513.85546875 -26.27734375 516.337890625 -27.7001953125Q518.8203125 -29.123046875 521.0 -29.970703125Q523.724609375 -31.0 532.0498046875 -33.78515625Q540.375 -36.5703125 543.28125 -38.14453125V-44.138671875Q543.28125 -44.92578125 542.9482421875 -47.166015625Q542.615234375 -49.40625 541.525390625 -51.404296875Q540.314453125 -53.64453125 538.1044921875 -55.3095703125Q535.89453125 -56.974609375 531.837890625 -56.974609375Q529.052734375 -56.974609375 526.6611328125 -56.0361328125Q524.26953125 -55.09765625 523.30078125 -54.068359375Q523.30078125 -52.857421875 523.8759765625 -50.49609375Q524.451171875 -48.134765625 524.451171875 -46.13671875Q524.451171875 -44.017578125 522.5439453125 -42.26171875Q520.63671875 -40.505859375 517.24609375 -40.505859375Q514.21875 -40.505859375 512.7958984375 -42.6552734375Q511.373046875 -44.8046875 511.373046875 -47.46875Q511.373046875 -50.25390625 513.3408203125 -52.796875Q515.30859375 -55.33984375 518.45703125 -57.337890625Q521.181640625 -59.033203125 525.056640625 -60.2138671875Q528.931640625 -61.39453125 532.625 -61.39453125Q537.7109375 -61.39453125 541.4951171875 -60.6982421875Q545.279296875 -60.001953125 548.3671875 -57.701171875Q551.455078125 -55.4609375 553.0595703125 -51.6162109375Q554.6640625 -47.771484375 554.6640625 -41.716796875Q554.6640625 -33.05859375 554.482421875 -26.3681640625Q554.30078125 -19.677734375 554.30078125 -11.74609375Q554.30078125 -9.384765625 555.1181640625 -7.9921875Q555.935546875 -6.599609375 557.630859375 -5.630859375Q558.5390625 -5.0859375 560.5068359375 -5.025390625Q562.474609375 -4.96484375 564.533203125 -4.96484375ZM543.40234375 -33.05859375Q538.255859375 -31.544921875 534.380859375 -30.091796875Q530.505859375 -28.638671875 527.17578125 -26.458984375Q524.1484375 -24.400390625 522.392578125 -21.5849609375Q520.63671875 -18.76953125 520.63671875 -14.89453125Q520.63671875 -9.869140625 523.2705078125 -7.5078125Q525.904296875 -5.146484375 529.9609375 -5.146484375Q534.259765625 -5.146484375 537.529296875 -7.2353515625Q540.798828125 -9.32421875 543.0390625 -12.169921875Z"/><path d="M616.1796875 -52.009765625Q616.1796875 -48.921875 614.666015625 -46.5302734375Q613.15234375 -44.138671875 610.00390625 -44.138671875Q606.61328125 -44.138671875 604.8271484375 -45.89453125Q603.041015625 -47.650390625 603.041015625 -49.76953125Q603.041015625 -51.1015625 603.2529296875 -52.19140625Q603.46484375 -53.28125 603.646484375 -54.37109375Q600.80078125 -54.37109375 596.986328125 -52.0703125Q593.171875 -49.76953125 590.5078125 -45.53125V-10.77734375Q590.5078125 -8.658203125 591.3251953125 -7.326171875Q592.142578125 -5.994140625 593.8984375 -5.328125Q595.412109375 -4.72265625 597.8037109375 -4.419921875Q600.1953125 -4.1171875 601.951171875 -3.99609375V0.0H570.466796875V-3.99609375Q571.859375 -4.1171875 573.3427734375 -4.23828125Q574.826171875 -4.359375 575.916015625 -4.72265625Q577.611328125 -5.267578125 578.4287109375 -6.6298828125Q579.24609375 -7.9921875 579.24609375 -10.171875V-47.044921875Q579.24609375 -48.921875 578.3681640625 -50.73828125Q577.490234375 -52.5546875 575.916015625 -53.64453125Q574.765625 -54.37109375 573.19140625 -54.7041015625Q571.6171875 -55.037109375 569.80078125 -55.158203125V-59.09375L589.66015625 -60.42578125L590.5078125 -59.578125V-51.162109375H590.810546875Q594.564453125 -56.06640625 599.166015625 -58.609375Q603.767578125 -61.15234375 607.58203125 -61.15234375Q611.396484375 -61.15234375 613.7880859375 -58.669921875Q616.1796875 -56.1875 616.1796875 -52.009765625Z"/><path d="M684.537109375 0.0H666.494140625Q661.771484375 -6.841796875 656.3828125 -14.65234375Q650.994140625 -22.462890625 645.181640625 -29.849609375L640.216796875 -25.1875V-11.01953125Q640.216796875 -8.83984375 641.00390625 -7.4169921875Q641.791015625 -5.994140625 643.546875 -5.328125Q645.0 -4.72265625 646.33203125 -4.419921875Q647.6640625 -4.1171875 649.419921875 -3.99609375V0.0H620.115234375V-3.99609375Q621.5078125 -4.1171875 623.021484375 -4.2685546875Q624.53515625 -4.419921875 625.564453125 -4.72265625Q627.259765625 -5.267578125 628.107421875 -6.6298828125Q628.955078125 -7.9921875 628.955078125 -10.171875V-79.55859375Q628.955078125 -81.798828125 628.0166015625 -83.7666015625Q627.078125 -85.734375 625.564453125 -86.763671875Q624.29296875 -87.732421875 621.5986328125 -88.03515625Q618.904296875 -88.337890625 617.26953125 -88.458984375V-92.333984375L639.369140625 -93.7265625L640.216796875 -92.818359375V-29.66796875Q644.939453125 -34.390625 650.4189453125 -39.8095703125Q655.8984375 -45.228515625 659.65234375 -49.466796875Q660.13671875 -50.01171875 660.7119140625 -50.8896484375Q661.287109375 -51.767578125 661.287109375 -52.3125Q661.287109375 -53.947265625 658.6533203125 -54.734375Q656.01953125 -55.521484375 653.59765625 -55.82421875V-59.69921875H679.875V-55.9453125Q674.7890625 -54.431640625 670.8837890625 -52.1611328125Q666.978515625 -49.890625 664.919921875 -48.07421875Q663.466796875 -46.86328125 660.802734375 -44.138671875Q658.138671875 -41.4140625 653.35546875 -36.994140625Q658.3203125 -30.87890625 664.5263671875 -22.341796875Q670.732421875 -13.8046875 673.578125 -9.990234375Q676.2421875 -6.41796875 678.361328125 -5.328125Q680.48046875 -4.23828125 684.537109375 -3.99609375Z"/><path d="M727.1015625 -29.244140625Q729.583984375 -27.064453125 730.916015625 -24.21875Q732.248046875 -21.373046875 732.248046875 -17.255859375Q732.248046875 -8.9609375 726.0419921875 -3.693359375Q719.8359375 1.57421875 709.966796875 1.57421875Q704.759765625 1.57421875 700.3701171875 -0.302734375Q695.98046875 -2.1796875 694.103515625 -3.75390625L692.892578125 0.181640625H688.3515625L687.74609375 -20.5859375H691.923828125Q692.408203125 -18.224609375 693.982421875 -15.076171875Q695.556640625 -11.927734375 697.796875 -9.384765625Q700.158203125 -6.720703125 703.4580078125 -4.904296875Q706.7578125 -3.087890625 710.875 -3.087890625Q716.6875 -3.087890625 719.8359375 -5.7216796875Q722.984375 -8.35546875 722.984375 -13.259765625Q722.984375 -15.802734375 721.9853515625 -17.6494140625Q720.986328125 -19.49609375 719.048828125 -20.888671875Q717.05078125 -22.28125 714.14453125 -23.4013671875Q711.23828125 -24.521484375 707.666015625 -25.611328125Q704.8203125 -26.458984375 701.3388671875 -27.9423828125Q697.857421875 -29.42578125 695.375 -31.423828125Q692.7109375 -33.54296875 691.015625 -36.630859375Q689.3203125 -39.71875 689.3203125 -43.896484375Q689.3203125 -51.22265625 694.76953125 -56.30859375Q700.21875 -61.39453125 709.361328125 -61.39453125Q712.873046875 -61.39453125 716.5361328125 -60.486328125Q720.19921875 -59.578125 722.5 -58.306640625L723.892578125 -61.455078125H728.251953125L729.16015625 -42.26171875H724.982421875Q723.7109375 -48.6796875 719.5029296875 -52.7060546875Q715.294921875 -56.732421875 709.240234375 -56.732421875Q704.275390625 -56.732421875 701.4296875 -54.25Q698.583984375 -51.767578125 698.583984375 -48.255859375Q698.583984375 -45.53125 699.5224609375 -43.71484375Q700.4609375 -41.8984375 702.337890625 -40.626953125Q704.154296875 -39.416015625 706.9091796875 -38.3564453125Q709.6640625 -37.296875 713.720703125 -35.96484375Q717.716796875 -34.693359375 721.2587890625 -32.998046875Q724.80078125 -31.302734375 727.1015625 -29.244140625Z"/></g>
  <path d="M430 34 C548 70 675 44 780 32" fill="none" stroke="#E9AD2E" stroke-width="5" stroke-linecap="round"/>
  <g opacity="1">
<path d="M810 -14 L813.96 0.040000000000000036 L828 4 L813.96 7.96 L810 22 L806.04 7.96 L792 4 L806.04 0.040000000000000036 Z" fill="#E9AD2E"/>
</g>
  <g class="outlined-text tagline" fill="#17727F" aria-hidden="true" data-text-source="Find the magic between park days."><path d="M77.528 69.344H92.152V72.992H81.56V78.944H91.544V82.592H81.56V92.0H77.528Z"/><path d="M96.88799999999999 76.64H100.728V92.0H96.88799999999999ZM96.344 71.424Q96.344 70.496 97.032 69.80799999999999Q97.72 69.12 98.776 69.12Q99.832 69.12 100.55199999999999 69.77600000000001Q101.27199999999999 70.432 101.27199999999999 71.424Q101.27199999999999 72.416 100.55199999999999 73.072Q99.832 73.728 98.776 73.728Q97.72 73.728 97.032 73.03999999999999Q96.344 72.352 96.344 71.424Z"/><path d="M106.42399999999999 76.64H110.07199999999999V79.104H110.136Q110.67999999999999 77.952 111.79999999999998 77.104Q112.91999999999999 76.256 114.83999999999999 76.256Q116.37599999999999 76.256 117.448 76.768Q118.52 77.28 119.192 78.112Q119.86399999999999 78.944 120.15199999999999 80.03200000000001Q120.44 81.12 120.44 82.304V92.0H116.6V84.224Q116.6 83.584 116.536 82.80000000000001Q116.472 82.016 116.19999999999999 81.328Q115.928 80.64 115.352 80.176Q114.776 79.712 113.78399999999999 79.712Q112.82399999999998 79.712 112.16799999999998 80.03200000000001Q111.51199999999999 80.352 111.07999999999998 80.896Q110.648 81.44 110.45599999999999 82.144Q110.264 82.848 110.264 83.616V92.0H106.42399999999999Z"/><path d="M138.232 89.696H138.16799999999998Q137.33599999999998 91.104 135.928 91.744Q134.51999999999998 92.384 132.88799999999998 92.384Q131.09599999999998 92.384 129.70399999999998 91.75999999999999Q128.31199999999998 91.136 127.32 90.048Q126.32799999999999 88.96 125.81599999999999 87.488Q125.30399999999999 86.016 125.30399999999999 84.32Q125.30399999999999 82.624 125.84799999999998 81.152Q126.39199999999998 79.68 127.368 78.59200000000001Q128.344 77.504 129.71999999999997 76.88Q131.09599999999998 76.256 132.72799999999998 76.256Q133.81599999999997 76.256 134.64799999999997 76.47999999999999Q135.48 76.704 136.12 77.056Q136.76 77.408 137.20799999999997 77.80799999999999Q137.65599999999998 78.208 137.944 78.592H138.04V67.80799999999999H141.88V92.0H138.232ZM129.14399999999998 84.32Q129.14399999999998 85.216 129.44799999999998 86.048Q129.75199999999998 86.88 130.344 87.52Q130.93599999999998 88.16 131.76799999999997 88.544Q132.6 88.928 133.65599999999998 88.928Q134.712 88.928 135.54399999999998 88.544Q136.37599999999998 88.16 136.96799999999996 87.52Q137.55999999999997 86.88 137.86399999999998 86.048Q138.16799999999998 85.216 138.16799999999998 84.32Q138.16799999999998 83.424 137.86399999999998 82.59200000000001Q137.55999999999997 81.76 136.96799999999996 81.12Q136.37599999999998 80.48 135.54399999999998 80.096Q134.712 79.712 133.65599999999998 79.712Q132.6 79.712 131.76799999999997 80.096Q130.93599999999998 80.48 130.344 81.12Q129.75199999999998 81.76 129.44799999999998 82.59200000000001Q129.14399999999998 83.424 129.14399999999998 84.32Z"/><path d="M156.47199999999998 79.904V76.64H159.64V72.19200000000001H163.48V76.64H167.704V79.904H163.48V86.624Q163.48 87.776 163.91199999999998 88.44800000000001Q164.344 89.12 165.624 89.12Q166.136 89.12 166.744 89.00800000000001Q167.352 88.896 167.704 88.64V91.872Q167.096 92.16 166.216 92.27199999999999Q165.33599999999998 92.384 164.664 92.384Q163.128 92.384 162.152 92.048Q161.176 91.712 160.61599999999999 91.024Q160.05599999999998 90.336 159.84799999999998 89.312Q159.64 88.288 159.64 86.944V79.904Z"/><path d="M175.864 78.78399999999999H175.92800000000003Q176.376 77.824 177.512 77.03999999999999Q178.64800000000002 76.256 180.44000000000003 76.256Q181.976 76.256 183.048 76.768Q184.12 77.28 184.792 78.112Q185.464 78.944 185.752 80.03200000000001Q186.04000000000002 81.12 186.04000000000002 82.304V92.0H182.20000000000002V84.224Q182.20000000000002 83.584 182.13600000000002 82.80000000000001Q182.072 82.016 181.8 81.328Q181.52800000000002 80.64 180.952 80.176Q180.376 79.712 179.38400000000001 79.712Q178.424 79.712 177.76800000000003 80.03200000000001Q177.11200000000002 80.352 176.68 80.896Q176.24800000000002 81.44 176.056 82.144Q175.864 82.848 175.864 83.616V92.0H172.024V67.80799999999999H175.864Z"/><path d="M194.744 85.664Q194.936 87.392 196.08800000000002 88.352Q197.24 89.312 198.872 89.312Q200.312 89.312 201.288 88.72Q202.264 88.128 203.0 87.232L205.752 89.312Q204.40800000000002 90.976 202.74400000000003 91.68Q201.08 92.384 199.256 92.384Q197.52800000000002 92.384 195.99200000000002 91.80799999999999Q194.45600000000002 91.232 193.336 90.176Q192.216 89.12 191.56 87.632Q190.904 86.144 190.904 84.32Q190.904 82.496 191.56 81.008Q192.216 79.52 193.336 78.464Q194.45600000000002 77.408 195.99200000000002 76.832Q197.52800000000002 76.256 199.256 76.256Q200.856 76.256 202.184 76.816Q203.512 77.376 204.45600000000002 78.432Q205.4 79.488 205.928 81.03999999999999Q206.45600000000002 82.592 206.45600000000002 84.608V85.664ZM202.616 82.78399999999999Q202.584 81.088 201.56 80.112Q200.536 79.136 198.71200000000002 79.136Q196.984 79.136 195.976 80.128Q194.96800000000002 81.12 194.744 82.78399999999999Z"/><path d="M221.912 76.64H225.56V79.03999999999999H225.62400000000002Q226.13600000000002 77.952 227.27200000000002 77.104Q228.40800000000002 76.256 230.328 76.256Q233.94400000000002 76.256 235.12800000000001 79.104Q235.96 77.632 237.20800000000003 76.944Q238.45600000000002 76.256 240.18400000000003 76.256Q241.72000000000003 76.256 242.776 76.768Q243.83200000000002 77.28 244.488 78.176Q245.144 79.072 245.43200000000002 80.27199999999999Q245.72000000000003 81.472 245.72000000000003 82.848V92.0H241.88000000000002V83.29599999999999Q241.88000000000002 82.592 241.752 81.936Q241.62400000000002 81.28 241.30400000000003 80.78399999999999Q240.984 80.288 240.44 80.0Q239.89600000000002 79.712 239.032 79.712Q238.13600000000002 79.712 237.512 80.048Q236.888 80.384 236.488 80.944Q236.08800000000002 81.504 235.91200000000003 82.224Q235.73600000000002 82.944 235.73600000000002 83.68V92.0H231.89600000000002V82.848Q231.89600000000002 81.408 231.288 80.56Q230.68 79.712 229.27200000000002 79.712Q228.312 79.712 227.656 80.03200000000001Q227.00000000000003 80.352 226.56800000000004 80.896Q226.13600000000002 81.44 225.94400000000002 82.144Q225.752 82.848 225.752 83.616V92.0H221.912Z"/><path d="M260.79200000000003 89.888H260.696Q259.86400000000003 91.2 258.58400000000006 91.792Q257.30400000000003 92.384 255.76800000000003 92.384Q254.71200000000002 92.384 253.704 92.096Q252.69600000000003 91.808 251.91200000000003 91.232Q251.12800000000001 90.656 250.64800000000002 89.792Q250.168 88.928 250.168 87.776Q250.168 86.528 250.616 85.648Q251.06400000000002 84.768 251.81600000000003 84.176Q252.568 83.584 253.56 83.232Q254.55200000000002 82.88 255.62400000000002 82.70400000000001Q256.696 82.528 257.784 82.48Q258.872 82.432 259.832 82.432H260.79200000000003V82.016Q260.79200000000003 80.576 259.8 79.856Q258.808 79.136 257.27200000000005 79.136Q256.05600000000004 79.136 255.00000000000003 79.568Q253.94400000000002 80.0 253.17600000000002 80.736L251.16000000000003 78.72Q252.44000000000003 77.408 254.15200000000004 76.832Q255.86400000000003 76.256 257.68800000000005 76.256Q259.32 76.256 260.44 76.624Q261.56 76.992 262.29600000000005 77.56800000000001Q263.03200000000004 78.144 263.432 78.896Q263.832 79.648 264.00800000000004 80.416Q264.184 81.184 264.216 81.904Q264.24800000000005 82.624 264.24800000000005 83.168V92.0H260.79200000000003ZM260.56800000000004 85.12H259.76800000000003Q258.968 85.12 257.976 85.184Q256.98400000000004 85.248 256.10400000000004 85.488Q255.22400000000002 85.728 254.616 86.19200000000001Q254.008 86.656 254.008 87.488Q254.008 88.032 254.24800000000002 88.4Q254.48800000000003 88.768 254.872 89.024Q255.25600000000003 89.28 255.73600000000002 89.392Q256.216 89.504 256.696 89.504Q258.68 89.504 259.624 88.56Q260.56800000000004 87.616 260.56800000000004 85.984Z"/><path d="M285.464 76.64V90.624Q285.464 92.704 284.952 94.38399999999999Q284.44 96.064 283.368 97.232Q282.296 98.4 280.664 99.04Q279.03200000000004 99.68 276.79200000000003 99.68Q274.648 99.68 272.728 99.136Q270.808 98.592 269.17600000000004 97.152L271.48 94.016Q272.632 95.072 273.88 95.648Q275.12800000000004 96.224 276.76 96.224Q278.136 96.224 279.08000000000004 95.84Q280.024 95.456 280.584 94.78399999999999Q281.144 94.112 281.384 93.168Q281.624 92.224 281.624 91.072V89.952H281.56Q280.728 91.072 279.352 91.632Q277.976 92.192 276.536 92.192Q274.808 92.192 273.4 91.568Q271.992 90.944 270.98400000000004 89.888Q269.976 88.832 269.432 87.392Q268.88800000000003 85.952 268.88800000000003 84.32Q268.88800000000003 82.624 269.40000000000003 81.152Q269.91200000000003 79.68 270.904 78.59200000000001Q271.896 77.504 273.288 76.88Q274.68 76.256 276.47200000000004 76.256Q278.10400000000004 76.256 279.51200000000006 76.896Q280.92 77.536 281.752 78.944H281.81600000000003V76.64ZM277.272 79.712Q276.24800000000005 79.712 275.41600000000005 80.048Q274.584 80.384 273.992 80.976Q273.40000000000003 81.568 273.064 82.416Q272.728 83.264 272.728 84.288Q272.728 85.216 273.064 86.01599999999999Q273.40000000000003 86.816 274.00800000000004 87.424Q274.61600000000004 88.032 275.44800000000004 88.384Q276.28000000000003 88.736 277.24 88.736Q278.296 88.736 279.144 88.384Q279.992 88.032 280.58400000000006 87.44Q281.17600000000004 86.848 281.49600000000004 86.01599999999999Q281.81600000000003 85.184 281.81600000000003 84.224Q281.81600000000003 82.208 280.6 80.96000000000001Q279.384 79.712 277.272 79.712Z"/><path d="M291.16 76.64H295.0V92.0H291.16ZM290.61600000000004 71.424Q290.61600000000004 70.496 291.30400000000003 69.80799999999999Q291.992 69.12 293.048 69.12Q294.10400000000004 69.12 294.82400000000007 69.77600000000001Q295.54400000000004 70.432 295.54400000000004 71.424Q295.54400000000004 72.416 294.82400000000007 73.072Q294.10400000000004 73.728 293.048 73.728Q291.992 73.728 291.30400000000003 73.03999999999999Q290.61600000000004 72.352 290.61600000000004 71.424Z"/><path d="M311.192 81.248Q310.52 80.544 309.784 80.128Q309.048 79.712 308.28 79.712Q307.224 79.712 306.392 80.096Q305.56 80.48 304.96799999999996 81.12Q304.376 81.76 304.072 82.59200000000001Q303.768 83.424 303.768 84.32Q303.768 85.216 304.072 86.048Q304.376 86.88 304.96799999999996 87.52Q305.56 88.16 306.392 88.544Q307.224 88.928 308.28 88.928Q309.176 88.928 309.94399999999996 88.56Q310.712 88.192 311.256 87.488L313.816 90.24Q313.24 90.816 312.488 91.232Q311.736 91.648 310.96799999999996 91.904Q310.2 92.16 309.496 92.27199999999999Q308.792 92.384 308.28 92.384Q306.55199999999996 92.384 305.01599999999996 91.80799999999999Q303.47999999999996 91.232 302.36 90.176Q301.24 89.12 300.584 87.632Q299.928 86.144 299.928 84.32Q299.928 82.496 300.584 81.008Q301.24 79.52 302.36 78.464Q303.47999999999996 77.408 305.01599999999996 76.832Q306.55199999999996 76.256 308.28 76.256Q309.752 76.256 311.24 76.816Q312.728 77.376 313.84799999999996 78.592Z"/><path d="M328.1519999999999 67.80799999999999H331.9919999999999V78.592H332.0879999999999Q332.37599999999986 78.208 332.82399999999984 77.80799999999999Q333.2719999999999 77.408 333.9119999999999 77.056Q334.5519999999999 76.704 335.3839999999999 76.47999999999999Q336.2159999999999 76.256 337.30399999999986 76.256Q338.93599999999986 76.256 340.3119999999999 76.88Q341.6879999999999 77.504 342.6639999999999 78.59200000000001Q343.6399999999999 79.68 344.18399999999986 81.152Q344.7279999999999 82.624 344.7279999999999 84.32Q344.7279999999999 86.016 344.2159999999999 87.488Q343.7039999999999 88.96 342.7119999999999 90.048Q341.7199999999999 91.136 340.3119999999999 91.75999999999999Q338.9039999999999 92.384 337.1439999999999 92.384Q335.5119999999999 92.384 334.1039999999999 91.744Q332.6959999999999 91.104 331.86399999999986 89.696H331.7999999999999V92.0H328.1519999999999ZM340.88799999999986 84.32Q340.88799999999986 83.424 340.58399999999983 82.59200000000001Q340.27999999999986 81.76 339.6879999999999 81.12Q339.0959999999999 80.48 338.2639999999999 80.096Q337.4319999999999 79.712 336.37599999999986 79.712Q335.3199999999999 79.712 334.4879999999999 80.096Q333.6559999999999 80.48 333.06399999999985 81.12Q332.47199999999987 81.76 332.1679999999999 82.59200000000001Q331.86399999999986 83.424 331.86399999999986 84.32Q331.86399999999986 85.216 332.1679999999999 86.048Q332.47199999999987 86.88 333.06399999999985 87.52Q333.6559999999999 88.16 334.4879999999999 88.544Q335.3199999999999 88.928 336.37599999999986 88.928Q337.4319999999999 88.928 338.2639999999999 88.544Q339.0959999999999 88.16 339.6879999999999 87.52Q340.27999999999986 86.88 340.58399999999983 86.048Q340.88799999999986 85.216 340.88799999999986 84.32Z"/><path d="M352.6639999999999 85.664Q352.8559999999999 87.392 354.00799999999987 88.352Q355.15999999999985 89.312 356.79199999999986 89.312Q358.23199999999986 89.312 359.20799999999986 88.72Q360.18399999999986 88.128 360.9199999999999 87.232L363.6719999999999 89.312Q362.32799999999986 90.976 360.6639999999999 91.68Q358.9999999999999 92.384 357.1759999999999 92.384Q355.44799999999987 92.384 353.91199999999986 91.80799999999999Q352.37599999999986 91.232 351.25599999999986 90.176Q350.1359999999999 89.12 349.4799999999999 87.632Q348.8239999999999 86.144 348.8239999999999 84.32Q348.8239999999999 82.496 349.4799999999999 81.008Q350.1359999999999 79.52 351.25599999999986 78.464Q352.37599999999986 77.408 353.91199999999986 76.832Q355.44799999999987 76.256 357.1759999999999 76.256Q358.7759999999999 76.256 360.1039999999999 76.816Q361.4319999999999 77.376 362.37599999999986 78.432Q363.3199999999999 79.488 363.84799999999984 81.03999999999999Q364.37599999999986 82.592 364.37599999999986 84.608V85.664ZM360.5359999999999 82.78399999999999Q360.5039999999999 81.088 359.4799999999999 80.112Q358.4559999999999 79.136 356.6319999999999 79.136Q354.9039999999999 79.136 353.89599999999984 80.128Q352.88799999999986 81.12 352.6639999999999 82.78399999999999Z"/><path d="M367.44799999999987 79.904V76.64H370.6159999999999V72.19200000000001H374.45599999999985V76.64H378.67999999999984V79.904H374.45599999999985V86.624Q374.45599999999985 87.776 374.8879999999998 88.44800000000001Q375.3199999999998 89.12 376.59999999999985 89.12Q377.11199999999985 89.12 377.71999999999986 89.00800000000001Q378.32799999999986 88.896 378.67999999999984 88.64V91.872Q378.07199999999983 92.16 377.19199999999984 92.27199999999999Q376.31199999999984 92.384 375.6399999999999 92.384Q374.10399999999987 92.384 373.1279999999999 92.048Q372.1519999999999 91.712 371.59199999999987 91.024Q371.03199999999987 90.336 370.82399999999984 89.312Q370.6159999999999 88.288 370.6159999999999 86.944V79.904Z"/><path d="M380.8879999999998 76.64H385.0479999999998L388.3759999999998 87.392H388.4399999999998L391.5439999999998 76.64H395.7039999999998L399.0319999999998 87.392H399.0959999999998L402.2959999999998 76.64H406.1679999999998L400.9519999999998 92.0H397.1439999999998L393.4959999999998 81.504H393.4319999999998L390.1999999999998 92.0H386.2319999999998Z"/><path d="M412.79199999999975 85.664Q412.98399999999975 87.392 414.13599999999974 88.352Q415.2879999999998 89.312 416.91999999999973 89.312Q418.35999999999973 89.312 419.3359999999998 88.72Q420.3119999999998 88.128 421.0479999999998 87.232L423.7999999999997 89.312Q422.45599999999973 90.976 420.79199999999975 91.68Q419.12799999999976 92.384 417.30399999999975 92.384Q415.57599999999974 92.384 414.03999999999974 91.80799999999999Q412.50399999999973 91.232 411.3839999999998 90.176Q410.2639999999998 89.12 409.6079999999998 87.632Q408.95199999999977 86.144 408.95199999999977 84.32Q408.95199999999977 82.496 409.6079999999998 81.008Q410.2639999999998 79.52 411.3839999999998 78.464Q412.50399999999973 77.408 414.03999999999974 76.832Q415.57599999999974 76.256 417.30399999999975 76.256Q418.90399999999977 76.256 420.23199999999974 76.816Q421.5599999999998 77.376 422.5039999999998 78.432Q423.44799999999975 79.488 423.9759999999998 81.03999999999999Q424.50399999999973 82.592 424.50399999999973 84.608V85.664ZM420.66399999999976 82.78399999999999Q420.6319999999998 81.088 419.6079999999998 80.112Q418.5839999999998 79.136 416.75999999999976 79.136Q415.03199999999975 79.136 414.0239999999998 80.128Q413.01599999999974 81.12 412.79199999999975 82.78399999999999Z"/><path d="M432.4399999999997 85.664Q432.6319999999997 87.392 433.7839999999997 88.352Q434.9359999999997 89.312 436.5679999999997 89.312Q438.0079999999997 89.312 438.9839999999997 88.72Q439.9599999999997 88.128 440.69599999999974 87.232L443.44799999999975 89.312Q442.1039999999997 90.976 440.4399999999997 91.68Q438.7759999999997 92.384 436.9519999999997 92.384Q435.2239999999997 92.384 433.6879999999997 91.80799999999999Q432.1519999999997 91.232 431.0319999999997 90.176Q429.91199999999975 89.12 429.25599999999974 87.632Q428.59999999999974 86.144 428.59999999999974 84.32Q428.59999999999974 82.496 429.25599999999974 81.008Q429.91199999999975 79.52 431.0319999999997 78.464Q432.1519999999997 77.408 433.6879999999997 76.832Q435.2239999999997 76.256 436.9519999999997 76.256Q438.55199999999974 76.256 439.87999999999977 76.816Q441.20799999999974 77.376 442.1519999999997 78.432Q443.0959999999997 79.488 443.6239999999997 81.03999999999999Q444.1519999999997 82.592 444.1519999999997 84.608V85.664ZM440.3119999999997 82.78399999999999Q440.27999999999975 81.088 439.25599999999974 80.112Q438.23199999999974 79.136 436.40799999999973 79.136Q434.6799999999997 79.136 433.6719999999997 80.128Q432.6639999999997 81.12 432.4399999999997 82.78399999999999Z"/><path d="M449.0159999999997 76.64H452.6639999999997V79.104H452.72799999999967Q453.2719999999997 77.952 454.3919999999997 77.104Q455.5119999999997 76.256 457.4319999999997 76.256Q458.9679999999997 76.256 460.0399999999997 76.768Q461.1119999999997 77.28 461.78399999999965 78.112Q462.4559999999997 78.944 462.7439999999997 80.03200000000001Q463.0319999999997 81.12 463.0319999999997 82.304V92.0H459.19199999999967V84.224Q459.19199999999967 83.584 459.1279999999997 82.80000000000001Q459.0639999999997 82.016 458.7919999999997 81.328Q458.5199999999997 80.64 457.94399999999973 80.176Q457.3679999999997 79.712 456.3759999999997 79.712Q455.4159999999997 79.712 454.7599999999997 80.03200000000001Q454.1039999999997 80.352 453.6719999999997 80.896Q453.23999999999967 81.44 453.04799999999966 82.144Q452.8559999999997 82.848 452.8559999999997 83.616V92.0H449.0159999999997Z"/><path d="M479.4159999999996 76.64H483.0639999999996V78.944H483.1279999999996Q483.95999999999964 77.536 485.3679999999996 76.896Q486.7759999999996 76.256 488.4079999999996 76.256Q490.1679999999996 76.256 491.57599999999957 76.88Q492.9839999999996 77.504 493.9759999999996 78.59200000000001Q494.9679999999996 79.68 495.4799999999996 81.152Q495.9919999999996 82.624 495.9919999999996 84.32Q495.9919999999996 86.016 495.44799999999964 87.488Q494.9039999999996 88.96 493.9279999999996 90.048Q492.9519999999996 91.136 491.57599999999957 91.75999999999999Q490.1999999999996 92.384 488.5679999999996 92.384Q487.4799999999996 92.384 486.6479999999996 92.16Q485.81599999999963 91.936 485.1759999999996 91.584Q484.5359999999996 91.232 484.0879999999996 90.832Q483.6399999999996 90.432 483.35199999999963 90.048H483.25599999999963V99.296H479.4159999999996ZM492.1519999999996 84.32Q492.1519999999996 83.424 491.8479999999996 82.59200000000001Q491.5439999999996 81.76 490.9519999999996 81.12Q490.3599999999996 80.48 489.5279999999996 80.096Q488.69599999999963 79.712 487.6399999999996 79.712Q486.5839999999996 79.712 485.7519999999996 80.096Q484.9199999999996 80.48 484.32799999999963 81.12Q483.7359999999996 81.76 483.43199999999956 82.59200000000001Q483.1279999999996 83.424 483.1279999999996 84.32Q483.1279999999996 85.216 483.43199999999956 86.048Q483.7359999999996 86.88 484.32799999999963 87.52Q484.9199999999996 88.16 485.7519999999996 88.544Q486.5839999999996 88.928 487.6399999999996 88.928Q488.69599999999963 88.928 489.5279999999996 88.544Q490.3599999999996 88.16 490.9519999999996 87.52Q491.5439999999996 86.88 491.8479999999996 86.048Q492.1519999999996 85.216 492.1519999999996 84.32Z"/><path d="M510.4559999999996 89.888H510.3599999999996Q509.5279999999996 91.2 508.2479999999996 91.792Q506.9679999999996 92.384 505.4319999999996 92.384Q504.37599999999964 92.384 503.3679999999996 92.096Q502.3599999999996 91.808 501.5759999999996 91.232Q500.79199999999963 90.656 500.3119999999996 89.792Q499.8319999999996 88.928 499.8319999999996 87.776Q499.8319999999996 86.528 500.27999999999963 85.648Q500.7279999999996 84.768 501.4799999999996 84.176Q502.23199999999963 83.584 503.2239999999996 83.232Q504.2159999999996 82.88 505.2879999999996 82.70400000000001Q506.3599999999996 82.528 507.44799999999964 82.48Q508.5359999999996 82.432 509.4959999999996 82.432H510.4559999999996V82.016Q510.4559999999996 80.576 509.4639999999996 79.856Q508.4719999999996 79.136 506.9359999999996 79.136Q505.71999999999963 79.136 504.66399999999965 79.568Q503.6079999999996 80.0 502.83999999999963 80.736L500.8239999999996 78.72Q502.1039999999996 77.408 503.8159999999996 76.832Q505.5279999999996 76.256 507.35199999999963 76.256Q508.9839999999996 76.256 510.1039999999996 76.624Q511.2239999999996 76.992 511.9599999999996 77.56800000000001Q512.6959999999996 78.144 513.0959999999995 78.896Q513.4959999999996 79.648 513.6719999999996 80.416Q513.8479999999996 81.184 513.8799999999997 81.904Q513.9119999999996 82.624 513.9119999999996 83.168V92.0H510.4559999999996ZM510.23199999999963 85.12H509.4319999999996Q508.6319999999996 85.12 507.63999999999965 85.184Q506.6479999999996 85.248 505.76799999999963 85.488Q504.88799999999964 85.728 504.27999999999963 86.19200000000001Q503.6719999999996 86.656 503.6719999999996 87.488Q503.6719999999996 88.032 503.9119999999996 88.4Q504.1519999999996 88.768 504.5359999999996 89.024Q504.9199999999996 89.28 505.39999999999964 89.392Q505.8799999999996 89.504 506.3599999999996 89.504Q508.3439999999996 89.504 509.2879999999996 88.56Q510.23199999999963 87.616 510.23199999999963 85.984Z"/><path d="M519.3199999999996 76.64H523.1599999999995V79.072H523.2239999999996Q523.8639999999996 77.728 525.0479999999995 76.99199999999999Q526.2319999999995 76.256 527.7679999999996 76.256Q528.1199999999995 76.256 528.4559999999996 76.32Q528.7919999999996 76.384 529.1439999999996 76.48V80.19200000000001Q528.6639999999995 80.064 528.1999999999996 79.984Q527.7359999999995 79.904 527.2879999999996 79.904Q525.9439999999995 79.904 525.1279999999995 80.4Q524.3119999999996 80.896 523.8799999999995 81.536Q523.4479999999995 82.176 523.3039999999995 82.816Q523.1599999999995 83.456 523.1599999999995 83.776V92.0H519.3199999999996Z"/><path d="M533.0479999999995 67.80799999999999H536.8879999999995V83.008L542.8079999999995 76.64H547.7359999999995L541.1439999999996 83.616L548.1519999999995 92.0H543.0639999999995L536.9519999999995 84.16H536.8879999999995V92.0H533.0479999999995Z"/><path d="M574.4239999999994 89.696H574.3599999999994Q573.5279999999995 91.104 572.1199999999994 91.744Q570.7119999999994 92.384 569.0799999999994 92.384Q567.2879999999994 92.384 565.8959999999995 91.75999999999999Q564.5039999999995 91.136 563.5119999999995 90.048Q562.5199999999994 88.96 562.0079999999994 87.488Q561.4959999999994 86.016 561.4959999999994 84.32Q561.4959999999994 82.624 562.0399999999994 81.152Q562.5839999999994 79.68 563.5599999999994 78.59200000000001Q564.5359999999994 77.504 565.9119999999994 76.88Q567.2879999999994 76.256 568.9199999999994 76.256Q570.0079999999994 76.256 570.8399999999993 76.47999999999999Q571.6719999999993 76.704 572.3119999999994 77.056Q572.9519999999994 77.408 573.3999999999994 77.80799999999999Q573.8479999999994 78.208 574.1359999999994 78.592H574.2319999999994V67.80799999999999H578.0719999999994V92.0H574.4239999999994ZM565.3359999999994 84.32Q565.3359999999994 85.216 565.6399999999994 86.048Q565.9439999999994 86.88 566.5359999999994 87.52Q567.1279999999994 88.16 567.9599999999994 88.544Q568.7919999999993 88.928 569.8479999999994 88.928Q570.9039999999994 88.928 571.7359999999994 88.544Q572.5679999999994 88.16 573.1599999999994 87.52Q573.7519999999994 86.88 574.0559999999994 86.048Q574.3599999999994 85.216 574.3599999999994 84.32Q574.3599999999994 83.424 574.0559999999994 82.59200000000001Q573.7519999999994 81.76 573.1599999999994 81.12Q572.5679999999994 80.48 571.7359999999994 80.096Q570.9039999999994 79.712 569.8479999999994 79.712Q568.7919999999993 79.712 567.9599999999994 80.096Q567.1279999999994 80.48 566.5359999999994 81.12Q565.9439999999994 81.76 565.6399999999994 82.59200000000001Q565.3359999999994 83.424 565.3359999999994 84.32Z"/><path d="M593.3039999999993 89.888H593.2079999999993Q592.3759999999993 91.2 591.0959999999993 91.792Q589.8159999999993 92.384 588.2799999999993 92.384Q587.2239999999994 92.384 586.2159999999993 92.096Q585.2079999999993 91.808 584.4239999999993 91.232Q583.6399999999993 90.656 583.1599999999994 89.792Q582.6799999999994 88.928 582.6799999999994 87.776Q582.6799999999994 86.528 583.1279999999994 85.648Q583.5759999999993 84.768 584.3279999999993 84.176Q585.0799999999994 83.584 586.0719999999993 83.232Q587.0639999999993 82.88 588.1359999999993 82.70400000000001Q589.2079999999993 82.528 590.2959999999994 82.48Q591.3839999999993 82.432 592.3439999999994 82.432H593.3039999999993V82.016Q593.3039999999993 80.576 592.3119999999993 79.856Q591.3199999999994 79.136 589.7839999999993 79.136Q588.5679999999993 79.136 587.5119999999993 79.568Q586.4559999999993 80.0 585.6879999999993 80.736L583.6719999999993 78.72Q584.9519999999993 77.408 586.6639999999993 76.832Q588.3759999999993 76.256 590.1999999999994 76.256Q591.8319999999993 76.256 592.9519999999993 76.624Q594.0719999999993 76.992 594.8079999999993 77.56800000000001Q595.5439999999993 78.144 595.9439999999993 78.896Q596.3439999999994 79.648 596.5199999999993 80.416Q596.6959999999993 81.184 596.7279999999994 81.904Q596.7599999999993 82.624 596.7599999999993 83.168V92.0H593.3039999999993ZM593.0799999999994 85.12H592.2799999999993Q591.4799999999993 85.12 590.4879999999994 85.184Q589.4959999999993 85.248 588.6159999999993 85.488Q587.7359999999993 85.728 587.1279999999992 86.19200000000001Q586.5199999999993 86.656 586.5199999999993 87.488Q586.5199999999993 88.032 586.7599999999993 88.4Q586.9999999999993 88.768 587.3839999999993 89.024Q587.7679999999993 89.28 588.2479999999994 89.392Q588.7279999999994 89.504 589.2079999999993 89.504Q591.1919999999993 89.504 592.1359999999993 88.56Q593.0799999999994 87.616 593.0799999999994 85.984Z"/><path d="M600.0879999999993 76.64H604.3119999999993L608.5999999999992 87.296H608.6639999999993L612.5039999999992 76.64H616.5039999999992L609.2399999999993 95.296Q608.8239999999993 96.384 608.3279999999993 97.2Q607.8319999999993 98.016 607.1599999999993 98.576Q606.4879999999993 99.136 605.5759999999993 99.408Q604.6639999999993 99.68 603.3839999999993 99.68Q601.8799999999993 99.68 600.4399999999993 99.296L600.9199999999993 95.84Q601.3679999999993 96.0 601.8639999999994 96.112Q602.3599999999993 96.224 602.8719999999993 96.224Q603.5759999999992 96.224 604.0559999999992 96.096Q604.5359999999993 95.968 604.8719999999993 95.696Q605.2079999999993 95.424 605.4319999999993 94.992Q605.6559999999993 94.56 605.9119999999992 93.952L606.6479999999992 92.128Z"/><path d="M628.2479999999993 80.896Q627.1279999999992 79.328 625.2399999999992 79.328Q624.4719999999992 79.328 623.7359999999992 79.712Q622.9999999999992 80.096 622.9999999999992 80.96Q622.9999999999992 81.664 623.6079999999993 81.98400000000001Q624.2159999999992 82.304 625.1439999999992 82.52799999999999Q626.0719999999992 82.752 627.1439999999992 82.99199999999999Q628.2159999999992 83.232 629.1439999999992 83.72800000000001Q630.0719999999992 84.224 630.6799999999992 85.088Q631.2879999999992 85.952 631.2879999999992 87.456Q631.2879999999992 88.832 630.6959999999992 89.776Q630.1039999999992 90.72 629.1599999999992 91.29599999999999Q628.2159999999992 91.872 627.0319999999992 92.128Q625.8479999999992 92.384 624.6639999999992 92.384Q622.8719999999992 92.384 621.3679999999993 91.872Q619.8639999999992 91.36 618.6799999999992 90.016L621.2399999999992 87.616Q621.9759999999992 88.448 622.8239999999992 88.976Q623.6719999999992 89.504 624.8879999999992 89.504Q625.3039999999992 89.504 625.7519999999993 89.408Q626.1999999999992 89.312 626.5839999999992 89.088Q626.9679999999992 88.864 627.2079999999992 88.52799999999999Q627.4479999999992 88.192 627.4479999999992 87.744Q627.4479999999992 86.944 626.8399999999992 86.56Q626.2319999999992 86.176 625.3039999999992 85.936Q624.3759999999992 85.696 623.3039999999992 85.488Q622.2319999999992 85.28 621.3039999999992 84.816Q620.3759999999992 84.352 619.7679999999991 83.52000000000001Q619.1599999999992 82.688 619.1599999999992 81.216Q619.1599999999992 79.936 619.6879999999992 78.992Q620.2159999999992 78.048 621.0799999999992 77.44Q621.9439999999992 76.832 623.0639999999992 76.544Q624.1839999999992 76.256 625.3359999999992 76.256Q626.8719999999992 76.256 628.3759999999992 76.78399999999999Q629.8799999999992 77.312 630.8079999999992 78.592Z"/><path d="M635.5439999999992 89.76Q635.5439999999992 88.736 636.2959999999991 88.0Q637.0479999999991 87.264 638.1039999999991 87.264Q639.1279999999991 87.264 639.8959999999992 87.96799999999999Q640.6639999999992 88.672 640.6639999999992 89.696Q640.6639999999992 90.72 639.9119999999991 91.45599999999999Q639.1599999999992 92.192 638.1039999999991 92.192Q637.5919999999992 92.192 637.1279999999992 92.0Q636.6639999999992 91.808 636.3119999999992 91.488Q635.9599999999991 91.168 635.7519999999992 90.72Q635.5439999999992 90.272 635.5439999999992 89.76Z"/></g>
</g><g class="outlined-text smallcaps" fill="#E9AD2E" aria-hidden="true" data-text-source="POCKET MAP COMPANION"><path d="M761.738 471.424H766.974Q768.096 471.424 769.1410000000001 471.644Q770.186 471.864 770.9780000000001 472.381Q771.77 472.898 772.2429999999999 473.76700000000005Q772.716 474.636 772.716 475.934Q772.716 477.408 772.21 478.31Q771.704 479.212 770.846 479.707Q769.988 480.202 768.855 480.378Q767.722 480.554 766.49 480.554H764.51V487.0H761.738ZM766.182 478.178Q766.776 478.178 767.414 478.134Q768.052 478.09 768.591 477.87Q769.13 477.65 769.471 477.21Q769.812 476.77 769.812 475.978Q769.812 475.252 769.504 474.823Q769.196 474.394 768.712 474.163Q768.228 473.932 767.634 473.866Q767.04 473.8 766.49 473.8H764.51V478.178Z"/><path d="M777.864 479.278Q777.864 477.408 778.48 475.879Q779.096 474.35 780.185 473.27200000000005Q781.274 472.194 782.781 471.611Q784.288 471.028 786.092 471.028Q787.918 471.006 789.4359999999999 471.567Q790.954 472.128 792.054 473.206Q793.154 474.284 793.77 475.802Q794.386 477.32 794.386 479.19Q794.386 481.016 793.77 482.512Q793.154 484.008 792.054 485.086Q790.954 486.164 789.4359999999999 486.769Q787.918 487.374 786.092 487.396Q784.288 487.396 782.781 486.813Q781.274 486.23 780.185 485.163Q779.096 484.096 778.48 482.6Q777.864 481.104 777.864 479.278ZM780.768 479.102Q780.768 480.356 781.153 481.41200000000003Q781.538 482.468 782.242 483.238Q782.946 484.008 783.925 484.448Q784.904 484.888 786.114 484.888Q787.324 484.888 788.314 484.448Q789.304 484.008 790.008 483.238Q790.712 482.468 791.097 481.41200000000003Q791.482 480.356 791.482 479.102Q791.482 477.936 791.097 476.924Q790.712 475.912 790.008 475.153Q789.304 474.394 788.314 473.96500000000003Q787.324 473.536 786.114 473.536Q784.904 473.536 783.925 473.96500000000003Q782.946 474.394 782.242 475.153Q781.538 475.912 781.153 476.924Q780.768 477.936 780.768 479.102Z"/><path d="M811.2379999999999 475.076Q810.38 474.152 809.577 473.844Q808.774 473.536 807.96 473.536Q806.75 473.536 805.771 473.96500000000003Q804.792 474.394 804.088 475.153Q803.384 475.912 802.999 476.924Q802.614 477.936 802.614 479.102Q802.614 480.356 802.999 481.41200000000003Q803.384 482.468 804.088 483.238Q804.792 484.008 805.771 484.448Q806.75 484.888 807.96 484.888Q808.906 484.888 809.797 484.437Q810.688 483.986 811.458 482.996L813.746 484.624Q812.6899999999999 486.076 811.172 486.736Q809.654 487.396 807.938 487.396Q806.134 487.396 804.627 486.813Q803.12 486.23 802.031 485.163Q800.942 484.096 800.326 482.6Q799.71 481.104 799.71 479.278Q799.71 477.408 800.326 475.879Q800.942 474.35 802.031 473.27200000000005Q803.12 472.194 804.627 471.611Q806.134 471.028 807.938 471.028Q809.5219999999999 471.028 810.875 471.589Q812.228 472.15 813.394 473.492Z"/><path d="M819.1360000000001 471.424H821.908V478.024H822.0400000000001L828.486 471.424H832.226L824.9440000000001 478.618L832.71 487.0H828.816L822.062 479.344H821.908V487.0H819.1360000000001Z"/><path d="M837.7260000000001 471.424H848.0440000000001V473.932H840.498V477.76H847.648V480.26800000000003H840.498V484.492H848.44V487.0H837.7260000000001Z"/><path d="M857.878 473.932H853.104V471.424H865.4240000000001V473.932H860.6500000000001V487.0H857.878Z"/><path d="M880.934 471.424H885.158L889.316 482.336L893.518 471.424H897.698V487.0H895.058V474.064H895.014L890.284 487.0H888.348L883.6179999999999 474.064H883.574V487.0H880.934Z"/><path d="M909.7979999999999 471.424H912.1959999999999L918.906 487.0H915.7379999999999L914.286 483.436H907.5319999999999L906.1239999999999 487.0H903.0219999999999ZM913.318 481.06 910.92 474.724 908.478 481.06Z"/><path d="M924.164 471.424H929.4Q930.5219999999999 471.424 931.567 471.644Q932.612 471.864 933.404 472.381Q934.1959999999999 472.898 934.6689999999999 473.76700000000005Q935.1419999999999 474.636 935.1419999999999 475.934Q935.1419999999999 477.408 934.636 478.31Q934.1299999999999 479.212 933.2719999999999 479.707Q932.414 480.202 931.281 480.378Q930.1479999999999 480.554 928.9159999999999 480.554H926.9359999999999V487.0H924.164ZM928.608 478.178Q929.2019999999999 478.178 929.8399999999999 478.134Q930.478 478.09 931.0169999999999 477.87Q931.5559999999999 477.65 931.8969999999999 477.21Q932.2379999999999 476.77 932.2379999999999 475.978Q932.2379999999999 475.252 931.93 474.823Q931.622 474.394 931.1379999999999 474.163Q930.6539999999999 473.932 930.06 473.866Q929.4659999999999 473.8 928.9159999999999 473.8H926.9359999999999V478.178Z"/><path d="M961.8499999999998 475.076Q960.9919999999998 474.152 960.1889999999999 473.844Q959.3859999999999 473.536 958.5719999999999 473.536Q957.3619999999999 473.536 956.3829999999998 473.96500000000003Q955.4039999999999 474.394 954.6999999999998 475.153Q953.9959999999999 475.912 953.6109999999999 476.924Q953.2259999999999 477.936 953.2259999999999 479.102Q953.2259999999999 480.356 953.6109999999999 481.41200000000003Q953.9959999999999 482.468 954.6999999999998 483.238Q955.4039999999999 484.008 956.3829999999998 484.448Q957.3619999999999 484.888 958.5719999999999 484.888Q959.5179999999998 484.888 960.4089999999999 484.437Q961.2999999999998 483.986 962.0699999999998 482.996L964.3579999999998 484.624Q963.3019999999998 486.076 961.7839999999999 486.736Q960.2659999999998 487.396 958.5499999999998 487.396Q956.7459999999999 487.396 955.2389999999998 486.813Q953.7319999999999 486.23 952.6429999999998 485.163Q951.5539999999999 484.096 950.9379999999999 482.6Q950.3219999999999 481.104 950.3219999999999 479.278Q950.3219999999999 477.408 950.9379999999999 475.879Q951.5539999999999 474.35 952.6429999999998 473.27200000000005Q953.7319999999999 472.194 955.2389999999998 471.611Q956.7459999999999 471.028 958.5499999999998 471.028Q960.1339999999998 471.028 961.4869999999999 471.589Q962.8399999999998 472.15 964.0059999999999 473.492Z"/><path d="M968.9119999999999 479.278Q968.9119999999999 477.408 969.5279999999999 475.879Q970.1439999999999 474.35 971.233 473.27200000000005Q972.3219999999999 472.194 973.829 471.611Q975.3359999999999 471.028 977.1399999999999 471.028Q978.9659999999999 471.006 980.4839999999999 471.567Q982.0019999999998 472.128 983.1019999999999 473.206Q984.2019999999999 474.284 984.8179999999999 475.802Q985.4339999999999 477.32 985.4339999999999 479.19Q985.4339999999999 481.016 984.8179999999999 482.512Q984.2019999999999 484.008 983.1019999999999 485.086Q982.0019999999998 486.164 980.4839999999999 486.769Q978.9659999999999 487.374 977.1399999999999 487.396Q975.3359999999999 487.396 973.829 486.813Q972.3219999999999 486.23 971.233 485.163Q970.1439999999999 484.096 969.5279999999999 482.6Q968.9119999999999 481.104 968.9119999999999 479.278ZM971.8159999999999 479.102Q971.8159999999999 480.356 972.2009999999999 481.41200000000003Q972.5859999999999 482.468 973.29 483.238Q973.9939999999999 484.008 974.973 484.448Q975.9519999999999 484.888 977.1619999999999 484.888Q978.3719999999998 484.888 979.3619999999999 484.448Q980.3519999999999 484.008 981.0559999999998 483.238Q981.7599999999999 482.468 982.1449999999999 481.41200000000003Q982.5299999999999 480.356 982.5299999999999 479.102Q982.5299999999999 477.936 982.1449999999999 476.924Q981.7599999999999 475.912 981.0559999999998 475.153Q980.3519999999999 474.394 979.3619999999999 473.96500000000003Q978.3719999999998 473.536 977.1619999999999 473.536Q975.9519999999999 473.536 974.973 473.96500000000003Q973.9939999999999 474.394 973.29 475.153Q972.5859999999999 475.912 972.2009999999999 476.924Q971.8159999999999 477.936 971.8159999999999 479.102Z"/><path d="M991.6599999999999 471.424H995.8839999999999L1000.0419999999999 482.336L1004.2439999999999 471.424H1008.4239999999999V487.0H1005.7839999999999V474.064H1005.7399999999999L1001.0099999999999 487.0H999.0739999999998L994.3439999999998 474.064H994.2999999999998V487.0H991.6599999999999Z"/><path d="M1015.4859999999999 471.424H1020.7219999999999Q1021.8439999999998 471.424 1022.8889999999999 471.644Q1023.9339999999999 471.864 1024.7259999999999 472.381Q1025.5179999999998 472.898 1025.9909999999998 473.76700000000005Q1026.4639999999997 474.636 1026.4639999999997 475.934Q1026.4639999999997 477.408 1025.9579999999996 478.31Q1025.4519999999998 479.212 1024.5939999999998 479.707Q1023.7359999999999 480.202 1022.6029999999998 480.378Q1021.4699999999998 480.554 1020.2379999999998 480.554H1018.2579999999998V487.0H1015.4859999999999ZM1019.9299999999998 478.178Q1020.5239999999998 478.178 1021.1619999999998 478.134Q1021.7999999999998 478.09 1022.3389999999998 477.87Q1022.8779999999998 477.65 1023.2189999999998 477.21Q1023.5599999999998 476.77 1023.5599999999998 475.978Q1023.5599999999998 475.252 1023.2519999999998 474.823Q1022.9439999999998 474.394 1022.4599999999998 474.163Q1021.9759999999998 473.932 1021.3819999999998 473.866Q1020.7879999999998 473.8 1020.2379999999998 473.8H1018.2579999999998V478.178Z"/><path d="M1035.8579999999997 471.424H1038.2559999999996L1044.9659999999997 487.0H1041.7979999999995L1040.3459999999995 483.436H1033.5919999999996L1032.1839999999997 487.0H1029.0819999999997ZM1039.3779999999997 481.06 1036.9799999999996 474.724 1034.5379999999996 481.06Z"/><path d="M1050.2239999999997 471.424H1053.8979999999997L1061.4439999999997 482.996H1061.4879999999996V471.424H1064.2599999999995V487.0H1060.7399999999996L1053.0399999999997 475.054H1052.9959999999996V487.0H1050.2239999999997Z"/><path d="M1071.1899999999996 471.424H1073.9619999999995V487.0H1071.1899999999996Z"/><path d="M1080.0559999999996 479.278Q1080.0559999999996 477.408 1080.6719999999996 475.879Q1081.2879999999996 474.35 1082.3769999999995 473.27200000000005Q1083.4659999999994 472.194 1084.9729999999995 471.611Q1086.4799999999996 471.028 1088.2839999999997 471.028Q1090.1099999999994 471.006 1091.6279999999995 471.567Q1093.1459999999995 472.128 1094.2459999999996 473.206Q1095.3459999999995 474.284 1095.9619999999995 475.802Q1096.5779999999995 477.32 1096.5779999999995 479.19Q1096.5779999999995 481.016 1095.9619999999995 482.512Q1095.3459999999995 484.008 1094.2459999999996 485.086Q1093.1459999999995 486.164 1091.6279999999995 486.769Q1090.1099999999994 487.374 1088.2839999999997 487.396Q1086.4799999999996 487.396 1084.9729999999995 486.813Q1083.4659999999994 486.23 1082.3769999999995 485.163Q1081.2879999999996 484.096 1080.6719999999996 482.6Q1080.0559999999996 481.104 1080.0559999999996 479.278ZM1082.9599999999996 479.102Q1082.9599999999996 480.356 1083.3449999999996 481.41200000000003Q1083.7299999999996 482.468 1084.4339999999995 483.238Q1085.1379999999995 484.008 1086.1169999999995 484.448Q1087.0959999999995 484.888 1088.3059999999996 484.888Q1089.5159999999996 484.888 1090.5059999999996 484.448Q1091.4959999999996 484.008 1092.1999999999996 483.238Q1092.9039999999995 482.468 1093.2889999999995 481.41200000000003Q1093.6739999999995 480.356 1093.6739999999995 479.102Q1093.6739999999995 477.936 1093.2889999999995 476.924Q1092.9039999999995 475.912 1092.1999999999996 475.153Q1091.4959999999996 474.394 1090.5059999999996 473.96500000000003Q1089.5159999999996 473.536 1088.3059999999996 473.536Q1087.0959999999995 473.536 1086.1169999999995 473.96500000000003Q1085.1379999999995 474.394 1084.4339999999995 475.153Q1083.7299999999996 475.912 1083.3449999999996 476.924Q1082.9599999999996 477.936 1082.9599999999996 479.102Z"/><path d="M1102.7379999999996 471.424H1106.4119999999996L1113.9579999999996 482.996H1114.0019999999995V471.424H1116.7739999999994V487.0H1113.2539999999995L1105.5539999999996 475.054H1105.5099999999995V487.0H1102.7379999999996Z"/></g><g transform="translate(760 535) scale(0.9)"><g opacity="1">
<path d="M0 -12 L2.64 -2.64 L12 0 L2.64 2.64 L0 12 L-2.64 2.64 L-12 0 L-2.64 -2.64 Z" fill="#E9AD2E"/>
</g><circle cx="40" cy="0" r="5" fill="#E9AD2E"/><circle cx="60" cy="0" r="7" fill="#E9AD2E"/><circle cx="82" cy="0" r="5" fill="#E9AD2E"/><g opacity="1">
<path d="M124 -12 L126.64 -2.64 L136 0 L126.64 2.64 L124 12 L121.36 2.64 L112 0 L121.36 -2.64 Z" fill="#E9AD2E"/>
</g></g></svg>
