<svg xmlns="http://www.w3.org/2000/svg" width="1200" height="1200" viewBox="0 0 1200 1200" role="img" aria-label="After the Parks Pocket Map Companion dark-mode logo lockup" >

<defs>
  <linearGradient id="goldGrad" x1="0" y1="0" x2="1" y2="1">
    <stop offset="0" stop-color="#FFF3A6"/>
    <stop offset="0.42" stop-color="#FFC94A"/>
    <stop offset="1" stop-color="#B76F15"/>
  </linearGradient>
  <radialGradient id="glowGrad" cx="50%" cy="45%" r="65%">
    <stop offset="0" stop-color="#FFFBE8"/>
    <stop offset="0.35" stop-color="#FFE36D"/>
    <stop offset="0.85" stop-color="#F2A326"/>
    <stop offset="1" stop-color="#B56F17"/>
  </radialGradient>
  <linearGradient id="navyGrad" x1="0" y1="0" x2="1" y2="1">
    <stop offset="0" stop-color="#173B60"/>
    <stop offset="0.55" stop-color="#0B2340"/>
    <stop offset="1" stop-color="#041226"/>
  </linearGradient>
  <linearGradient id="aquaGrad" x1="0" y1="0" x2="1" y2="1">
    <stop offset="0" stop-color="#E9FCFF"/>
    <stop offset="1" stop-color="#5BB8C4"/>
  </linearGradient>
  <linearGradient id="daySky" x1="0" y1="0" x2="1" y2="1">
    <stop offset="0" stop-color="#FDF6D2"/>
    <stop offset="0.4" stop-color="#BEEAF0"/>
    <stop offset="1" stop-color="#7EC7D2"/>
  </linearGradient>
  <linearGradient id="twilight" x1="0" y1="0" x2="1" y2="1">
    <stop offset="0" stop-color="#315A86"/>
    <stop offset="0.55" stop-color="#16385E"/>
    <stop offset="1" stop-color="#091B32"/>
  </linearGradient>
  <filter id="softShadow" x="-20%" y="-20%" width="140%" height="150%">
    <feDropShadow dx="0" dy="12" stdDeviation="10" flood-color="#071426" flood-opacity="0.18"/>
  </filter>
  <filter id="tinyShadow" x="-30%" y="-30%" width="160%" height="160%">
    <feDropShadow dx="0" dy="5" stdDeviation="4" flood-color="#071426" flood-opacity="0.22"/>
  </filter>
  <filter id="goldGlow" x="-70%" y="-70%" width="240%" height="240%">
    <feGaussianBlur stdDeviation="5" result="blur"/>
    <feColorMatrix in="blur" type="matrix" values="1 0 0 0 1  0 0.73 0 0 0.55  0 0 0.15 0 0.1  0 0 0 0.75 0" result="glow"/>
    <feMerge><feMergeNode in="glow"/><feMergeNode in="SourceGraphic"/></feMerge>
  </filter>
  <style>
    .wordmark { font-family: Georgia, 'Times New Roman', serif; fill: #FFF6E8; }
    .tagline { font-family: Avenir, Montserrat, Arial, sans-serif; fill: #BEEAF0; letter-spacing: .04em; }
    .smallcaps { font-family: Avenir, Montserrat, Arial, sans-serif; letter-spacing: .16em; font-weight: 700; }
    .navy-stroke { stroke:#0B2340; stroke-linecap:round; stroke-linejoin:round; }
    .gold-stroke { stroke:#E9AD2E; stroke-linecap:round; stroke-linejoin:round; }
  </style>
</defs>
<rect width="100%" height="100%" fill="#06172B"/>
<circle cx="202" cy="170" r="76" fill="#FFE47B" opacity=".9"/><path d="M1040 122 C1006 172 1038 230 1100 238 C1056 266 1007 244 988 202 C964 151 990 118 1040 122 Z" fill="#FFF1A8" opacity=".82"/><g transform="translate(100 125) scale(1.0)" filter="url(#softShadow)">
  <polygon points="40,210 250,118 380,156 350,412 16,386" fill="#F9F0D9" stroke="#A9C7BD" stroke-width="3"/>
  <polygon points="250,118 500,148 506,410 350,412 380,156" fill="#F3E8CC" stroke="#A9C7BD" stroke-width="3"/>
  <polygon points="500,148 748,108 820,396 506,410" fill="#F7EED7" stroke="#A9C7BD" stroke-width="3"/>
  <polygon points="748,108 984,198 1026,386 820,396" fill="#F9F0D9" stroke="#A9C7BD" stroke-width="3"/>

  <polygon points="54,212 246,138 368,168 344,381 45,360" fill="url(#daySky)" opacity=".65"/>
  <polygon points="260,136 492,166 492,389 362,392 390,172" fill="#DDF3DA" opacity=".86"/>
  <polygon points="512,166 736,132 792,378 512,390" fill="#D8F0E8" opacity=".9"/>
  <polygon points="760,132 970,212 1000,363 806,378" fill="#16385E" opacity=".80"/>

  <!-- pool stop -->
  <ellipse cx="158" cy="292" rx="86" ry="42" fill="#76C9D4" stroke="#fff" stroke-width="6"/>
  <ellipse cx="158" cy="292" rx="55" ry="22" fill="none" stroke="#A9EEF1" stroke-width="4" opacity=".8"/>
  <path d="M112 256 C130 230 168 226 200 250" fill="none" stroke="#6FA34E" stroke-width="8" opacity=".45"/>
  <path d="M82 342 C120 324 160 326 206 346" fill="none" stroke="#6FA34E" stroke-width="12" opacity=".5"/>

  <!-- left lower activity / play -->
  <path d="M92 363 C111 332 137 324 170 314 C199 303 228 278 254 242" fill="none" stroke="#C99045" stroke-width="10" stroke-linecap="round" opacity=".5"/>
  <rect x="110" y="326" width="64" height="10" rx="5" fill="#B57A3A"/><line x1="118" y1="326" x2="100" y2="360" stroke="#B57A3A" stroke-width="6"/><line x1="166" y1="326" x2="184" y2="360" stroke="#B57A3A" stroke-width="6"/>

  <!-- craft table -->
  <circle cx="415" cy="294" r="64" fill="#7ECBD1" stroke="#fff" stroke-width="6"/>
  <rect x="387" y="268" width="74" height="48" rx="7" fill="#FFF9E8" stroke="#E8C877" stroke-width="3"/>
  <circle cx="406" cy="288" r="8" fill="#E67A54"/><circle cx="424" cy="291" r="7" fill="#E9AD2E"/><circle cx="442" cy="286" r="7" fill="#5BB8C4"/>
  <path d="M398 304 C422 294 440 308 454 300" stroke="#E9AD2E" stroke-width="3" fill="none"/>

  <!-- snack hut -->
  <g transform="translate(596 264)">
    <rect x="0" y="40" width="102" height="82" rx="8" fill="#F5B36A" stroke="#BC6E35" stroke-width="4"/>
    <path d="M-8 42 L50 0 L112 42 Z" fill="#F28A62" stroke="#BC6E35" stroke-width="4"/>
    <rect x="18" y="66" width="66" height="45" rx="5" fill="#FFF3D2"/>
    <g class="outlined-text" fill="#fff" aria-hidden="true" data-text-source="SNACK"><path d="M31.798000000000002 20.212Q31.338 19.545 30.567500000000003 19.2345Q29.797 18.924 28.945999999999998 18.924Q28.439999999999998 18.924 27.9685 19.039Q27.497 19.154 27.1175 19.407Q26.738 19.66 26.508 20.0625Q26.278 20.465 26.278 21.017Q26.278 21.845 26.853 22.282Q27.428 22.719 28.279 23.041Q29.13 23.363 30.142 23.662Q31.154 23.961 32.005 24.49Q32.856 25.019 33.431 25.893Q34.006 26.767 34.006 28.216Q34.006 29.527 33.522999999999996 30.5045Q33.04 31.482 32.2235 32.126000000000005Q31.407 32.77 30.326 33.092Q29.245 33.414 28.049 33.414Q26.531 33.414 25.128 32.908Q23.725 32.402 22.713 31.206L24.898 29.09Q25.427 29.895 26.2895 30.3435Q27.152 30.792 28.118000000000002 30.792Q28.624 30.792 29.13 30.654Q29.636 30.516 30.049999999999997 30.24Q30.464 29.964 30.717 29.5385Q30.97 29.113 30.97 28.561Q30.97 27.664 30.395 27.181Q29.82 26.698 28.969 26.3645Q28.118000000000002 26.031 27.106 25.732Q26.094 25.433 25.243000000000002 24.9155Q24.392 24.398 23.817 23.5355Q23.242 22.673000000000002 23.242 21.224Q23.242 19.959 23.759500000000003 19.039Q24.277 18.119 25.116500000000002 17.5095Q25.956 16.9 27.037 16.601Q28.118000000000002 16.302 29.245 16.302Q30.533 16.302 31.7405 16.692999999999998Q32.948 17.084 33.914 17.981Z"/><path d="M37.019 16.716H40.86L48.748999999999995 28.814H48.795V16.716H51.693V33.0H48.013L39.963 20.511000000000003H39.917V33.0H37.019Z"/><path d="M60.593999999999994 16.716H63.101L70.116 33.0H66.804L65.286 29.274H58.224999999999994L56.753 33.0H53.51ZM64.274 26.79 61.766999999999996 20.166 59.214 26.79Z"/><path d="M83.111 20.534Q82.214 19.567999999999998 81.3745 19.246Q80.535 18.924 79.684 18.924Q78.419 18.924 77.3955 19.3725Q76.372 19.820999999999998 75.636 20.6145Q74.9 21.408 74.4975 22.466Q74.095 23.524 74.095 24.743000000000002Q74.095 26.054000000000002 74.4975 27.158Q74.9 28.262 75.636 29.067Q76.372 29.872 77.3955 30.332Q78.419 30.792 79.684 30.792Q80.673 30.792 81.6045 30.320500000000003Q82.536 29.849 83.341 28.814L85.733 30.516Q84.629 32.034 83.042 32.724000000000004Q81.455 33.414 79.661 33.414Q77.775 33.414 76.1995 32.804500000000004Q74.624 32.195 73.4855 31.0795Q72.347 29.964 71.703 28.4Q71.059 26.836 71.059 24.927Q71.059 22.972 71.703 21.3735Q72.347 19.775 73.4855 18.648Q74.624 17.521 76.1995 16.9115Q77.775 16.302 79.661 16.302Q81.31700000000001 16.302 82.73150000000001 16.8885Q84.146 17.475 85.365 18.878Z"/><path d="M87.68799999999999 16.716H90.586V23.616H90.72399999999999L97.463 16.716H101.37299999999999L93.75999999999999 24.237000000000002L101.87899999999999 33.0H97.80799999999999L90.747 24.996000000000002H90.586V33.0H87.68799999999999Z"/></g>
  </g>

  <!-- boat / explore -->
  <g transform="translate(800 230)">
    <path d="M0 68 C54 96 130 88 168 58 L151 94 C98 118 33 104 0 68 Z" fill="#FDF2D3" stroke="#0B2340" stroke-width="5"/>
    <rect x="52" y="19" width="82" height="52" rx="8" fill="#fff" stroke="#0B2340" stroke-width="4"/>
    <path d="M65 16 L90 -12 L124 16" fill="#F0C053" stroke="#0B2340" stroke-width="4"/>
    <path d="M-10 102 C40 83 90 121 170 94" fill="none" stroke="#5BB8C4" stroke-width="7" opacity=".8"/>
  </g>

  <!-- twilight cozy room -->
  <g transform="translate(825 268)"><rect x="0" y="22" width="118" height="92" rx="10" fill="#F6E2B8" opacity=".95"/><path d="M0 22 L58 -18 L118 22" fill="#294E74"/><rect x="30" y="48" width="60" height="44" rx="6" fill="#CBEAF0"/><path d="M51 59 C63 46 76 64 62 76 C58 79 54 82 51 85 C48 82 44 79 40 76 C27 64 39 46 51 59 Z" fill="#6AB3BA" opacity=".8"/></g>

  <!-- route line -->
  <path d="M132 250 C230 160 336 184 420 258 C508 338 604 322 686 274 C772 224 855 245 904 296 C938 331 933 362 892 373 C814 394 677 365 575 324 C454 276 341 282 212 338" fill="none" stroke="#FFE063" stroke-width="10" stroke-linecap="round" stroke-dasharray="1 22" filter="url(#goldGlow)"/>
  <path d="M132 250 C230 160 336 184 420 258 C508 338 604 322 686 274 C772 224 855 245 904 296 C938 331 933 362 892 373 C814 394 677 365 575 324 C454 276 341 282 212 338" fill="none" stroke="#E9AD2E" stroke-width="4" stroke-linecap="round"/>

  <g opacity="0.95" filter="url(#goldGlow)">
<circle cx="702" cy="252.5" r="6.75" fill="#E9AD2E"/>
<circle cx="688.5" cy="239.0" r="4.5" fill="#E9AD2E"/>
<circle cx="715.5" cy="239.0" r="4.5" fill="#E9AD2E"/>
</g>
  <g transform="translate(120 238) scale(0.55)" filter="url(#tinyShadow)">
<path d="M0,-34 C20,-34 34,-20 34,-1 C34,24 0,48 0,48 C0,48 -34,24 -34,-1 C-34,-20 -20,-34 0,-34 Z" fill="#FFFFFF" stroke="#E9AD2E" stroke-width="4"/>
<circle cx="0" cy="-3" r="17" fill="#FFF3BF"/>
<path d="M-9.6,-3 C-4.8,-7.2 0.0,1.2000000000000002 5.3999999999999995,-3 C9.6,-6.0 12.0,-3 12.0,-3" fill="none" stroke="#5BB8C4" stroke-width="4" stroke-linecap="round"/>
</g>
  <g transform="translate(420 225) scale(0.55)" filter="url(#tinyShadow)">
<path d="M0,-34 C20,-34 34,-20 34,-1 C34,24 0,48 0,48 C0,48 -34,24 -34,-1 C-34,-20 -20,-34 0,-34 Z" fill="#FFFFFF" stroke="#E9AD2E" stroke-width="4"/>
<circle cx="0" cy="-3" r="17" fill="#FFF3BF"/>
<g opacity="1">
<path d="M0 -15 L2.42 -6.42 L11 -4 L2.42 -1.58 L0 7 L-2.42 -1.58 L-11 -4 L-2.42 -6.42 Z" fill="#E67A54"/>
</g>
</g>
  <g transform="translate(705 238) scale(0.55)" filter="url(#tinyShadow)">
<path d="M0,-34 C20,-34 34,-20 34,-1 C34,24 0,48 0,48 C0,48 -34,24 -34,-1 C-34,-20 -20,-34 0,-34 Z" fill="#FFFFFF" stroke="#E9AD2E" stroke-width="4"/>
<circle cx="0" cy="-3" r="17" fill="#FFF3BF"/>
<circle cx="0" cy="-4" r="10" fill="#E9AD2E"/><circle cx="-7" cy="-7" r="3" fill="#fff" opacity=".8"/><circle cx="7" cy="-7" r="3" fill="#fff" opacity=".8"/>
</g>
  <g transform="translate(875 217) scale(0.55)" filter="url(#tinyShadow)">
<path d="M0,-34 C20,-34 34,-20 34,-1 C34,24 0,48 0,48 C0,48 -34,24 -34,-1 C-34,-20 -20,-34 0,-34 Z" fill="#FFFFFF" stroke="#E9AD2E" stroke-width="4"/>
<circle cx="0" cy="-3" r="17" fill="#FFF3BF"/>
<path d="M-15 3 C-2 -10 14 -2 16 12" stroke="#5BB8C4" stroke-width="5" fill="none" stroke-linecap="round"/>
</g>
</g><g transform="translate(150 80) scale(1.24)" filter="url(#tinyShadow)">
  <ellipse cx="70" cy="65" rx="58" ry="24" fill="#DFFBFF" opacity="0.58" stroke="#5BB8C4" stroke-width="3" transform="rotate(-31 70 65)"/>
  <ellipse cx="132" cy="66" rx="58" ry="24" fill="#DFFBFF" opacity="0.58" stroke="#5BB8C4" stroke-width="3" transform="rotate(24 132 66)"/>
  <path d="M24 66 C50 44 88 44 116 72" fill="none" stroke="#A9DEE5" stroke-width="1.7" opacity=".72"/>
  <path d="M98 63 C126 43 158 48 184 72" fill="none" stroke="#A9DEE5" stroke-width="1.7" opacity=".72"/>
  <ellipse cx="112" cy="122" rx="34" ry="53" transform="rotate(-20 112 122)" fill="url(#glowGrad)" filter="url(#goldGlow)"/>
  <path d="M88 92 C95 108 130 108 144 92" fill="#143052"/>
  <circle cx="86" cy="68" r="38" fill="url(#navyGrad)"/>
  <circle cx="74" cy="62" r="13" fill="#fff"/><circle cx="103" cy="62" r="13" fill="#fff"/>
  <circle cx="79" cy="65" r="7" fill="#081426"/><circle cx="98" cy="65" r="7" fill="#081426"/>
  <circle cx="82" cy="62" r="2.5" fill="#fff"/><circle cx="101" cy="62" r="2.5" fill="#fff"/>
  <path d="M76 84 C86 93 100 92 110 84" fill="none" stroke="#fff" stroke-width="3" stroke-linecap="round" opacity=".9"/>
  <path d="M73 38 C62 17 43 17 38 3" fill="none" stroke="#06172B" stroke-width="4" stroke-linecap="round"/>
  <path d="M98 38 C112 14 132 15 139 2" fill="none" stroke="#06172B" stroke-width="4" stroke-linecap="round"/>
  <circle cx="38" cy="3" r="8" fill="url(#glowGrad)" filter="url(#goldGlow)"/>
  <circle cx="139" cy="2" r="8" fill="url(#glowGrad)" filter="url(#goldGlow)"/>
  <path d="M69 104 C45 108 32 123 18 128" fill="none" stroke="#06172B" stroke-width="5" stroke-linecap="round"/>
  <path d="M102 102 C120 110 136 121 154 120" fill="none" stroke="#06172B" stroke-width="5" stroke-linecap="round"/>
  <path d="M78 101 C63 122 51 136 37 145" fill="none" stroke="#06172B" stroke-width="4" stroke-linecap="round"/>
  <path d="M118 102 C132 122 146 132 159 141" fill="none" stroke="#06172B" stroke-width="4" stroke-linecap="round"/>
  <path d="M63 96 C83 112 107 111 126 96 L115 119 C99 126 84 124 72 118 Z" fill="#5BB8C4" stroke="#0B2340" stroke-width="2"/>
</g><g transform="translate(215 720) scale(0.98)">
  <g class="outlined-text wordmark" fill="#FFF6E8" aria-hidden="true" data-text-source="After"><path d="M106.8525390625 0.0H62.412109375V-5.3388671875Q68.27734375 -5.71484375 72.14990234375 -6.8427734375Q76.0224609375 -7.970703125 76.0224609375 -9.625Q76.0224609375 -10.3017578125 75.8720703125 -11.279296875Q75.7216796875 -12.2568359375 75.4208984375 -13.0087890625L66.5478515625 -36.9208984375H29.17578125Q27.0703125 -31.6572265625 25.75439453125 -27.7470703125Q24.4384765625 -23.8369140625 23.3857421875 -20.5283203125Q22.408203125 -17.294921875 22.0322265625 -15.2646484375Q21.65625 -13.234375 21.65625 -11.9560546875Q21.65625 -8.9482421875 26.3935546875 -7.2939453125Q31.130859375 -5.6396484375 37.0712890625 -5.3388671875V0.0H-3.0830078125V-5.3388671875Q-1.1279296875 -5.4892578125 1.8046875 -6.20361328125Q4.7373046875 -6.91796875 6.6171875 -8.12109375Q9.625 -10.1513671875 11.279296875 -12.36962890625Q12.93359375 -14.587890625 14.5126953125 -18.498046875Q22.55859375 -38.5751953125 32.2587890625 -63.615234375Q41.958984375 -88.6552734375 49.5537109375 -108.2060546875H55.5693359375L91.13671875 -16.1669921875Q92.2646484375 -13.234375 93.693359375 -11.4296875Q95.1220703125 -9.625 97.6787109375 -7.8955078125Q99.408203125 -6.8427734375 102.1904296875 -6.12841796875Q104.97265625 -5.4140625 106.8525390625 -5.3388671875ZM63.8408203125 -43.61328125 47.673828125 -84.970703125 31.8076171875 -43.61328125Z"/><path d="M163.92578125 -107.4541015625Q163.92578125 -104.0703125 162.12109375 -101.7392578125Q160.31640625 -99.408203125 156.6318359375 -99.408203125Q154.30078125 -99.408203125 152.53369140625 -100.3857421875Q150.7666015625 -101.36328125 149.2626953125 -103.017578125Q147.7587890625 -104.671875 146.48046875 -106.77734375Q145.2021484375 -108.8828125 144.2998046875 -110.1611328125Q139.26171875 -109.935546875 136.51708984375 -103.13037109375Q133.7724609375 -96.3251953125 133.7724609375 -81.4365234375V-73.841796875H152.8720703125V-66.623046875H133.7724609375V-13.384765625Q133.7724609375 -10.7529296875 134.78759765625 -9.0986328125Q135.802734375 -7.4443359375 137.9833984375 -6.6171875Q139.7880859375 -5.9404296875 142.7958984375 -5.52685546875Q145.8037109375 -5.11328125 147.984375 -4.962890625V0.0H108.8828125V-4.962890625Q110.6123046875 -5.11328125 112.45458984375 -5.263671875Q114.296875 -5.4140625 115.650390625 -5.865234375Q117.755859375 -6.5419921875 118.77099609375 -8.23388671875Q119.7861328125 -9.92578125 119.7861328125 -12.6328125V-66.623046875H105.123046875V-73.841796875H119.7861328125V-78.5791015625Q119.7861328125 -95.498046875 128.54638671875 -105.98779296875Q137.306640625 -116.4775390625 150.4658203125 -116.4775390625Q157.158203125 -116.4775390625 160.5419921875 -113.845703125Q163.92578125 -111.2138671875 163.92578125 -107.4541015625Z"/><path d="M204.6064453125 -3.2333984375Q199.71875 -1.203125 195.357421875 0.18798828125Q190.99609375 1.5791015625 184.6796875 1.5791015625Q175.35546875 1.5791015625 171.55810546875 -3.12060546875Q167.7607421875 -7.8203125 167.7607421875 -16.392578125V-66.623046875H154.3759765625V-73.841796875H168.0615234375V-96.9267578125H181.7470703125V-73.841796875H203.02734375V-66.623046875H181.8974609375V-25.1904296875Q181.8974609375 -20.5283203125 182.23583984375 -17.40771484375Q182.57421875 -14.287109375 183.8525390625 -11.9560546875Q185.0556640625 -9.775390625 187.4619140625 -8.6474609375Q189.8681640625 -7.51953125 193.9287109375 -7.51953125Q195.80859375 -7.51953125 199.45556640625 -7.85791015625Q203.1025390625 -8.1962890625 204.6064453125 -8.72265625Z"/><path d="M277.8466796875 -17.4453125Q273.1845703125 -8.572265625 265.3642578125 -3.30859375Q257.5439453125 1.955078125 247.392578125 1.955078125Q238.4443359375 1.955078125 231.71435546875 -1.203125Q224.984375 -4.361328125 220.623046875 -9.775390625Q216.26171875 -15.189453125 214.11865234375 -22.408203125Q211.9755859375 -29.626953125 211.9755859375 -37.6728515625Q211.9755859375 -44.8916015625 214.26904296875 -51.84716796875Q216.5625 -58.802734375 220.9990234375 -64.3671875Q225.28515625 -69.7060546875 231.63916015625 -72.97705078125Q237.9931640625 -76.248046875 245.888671875 -76.248046875Q254.009765625 -76.248046875 259.7998046875 -73.69140625Q265.58984375 -71.134765625 269.19921875 -66.6982421875Q272.658203125 -62.4873046875 274.35009765625 -56.7724609375Q276.0419921875 -51.0576171875 276.0419921875 -44.365234375V-39.40234375H226.939453125Q226.939453125 -32.1083984375 228.33056640625 -26.16796875Q229.7216796875 -20.2275390625 232.7294921875 -15.7158203125Q235.662109375 -11.3544921875 240.3994140625 -8.83544921875Q245.13671875 -6.31640625 251.6787109375 -6.31640625Q258.37109375 -6.31640625 263.22119140625 -9.43701171875Q268.0712890625 -12.5576171875 272.5830078125 -20.6787109375ZM261.228515625 -45.71875Q261.228515625 -49.9296875 260.51416015625 -54.7421875Q259.7998046875 -59.5546875 258.220703125 -62.7880859375Q256.4912109375 -66.2470703125 253.4833984375 -68.427734375Q250.4755859375 -70.6083984375 245.73828125 -70.6083984375Q237.8427734375 -70.6083984375 232.61669921875 -64.02880859375Q227.390625 -57.44921875 226.939453125 -45.71875Z"/><path d="M343.19140625 -64.5927734375Q343.19140625 -60.7578125 341.3115234375 -57.78759765625Q339.431640625 -54.8173828125 335.521484375 -54.8173828125Q331.310546875 -54.8173828125 329.09228515625 -56.998046875Q326.8740234375 -59.1787109375 326.8740234375 -61.810546875Q326.8740234375 -63.46484375 327.13720703125 -64.818359375Q327.400390625 -66.171875 327.6259765625 -67.525390625Q324.091796875 -67.525390625 319.3544921875 -64.66796875Q314.6171875 -61.810546875 311.30859375 -56.546875V-13.384765625Q311.30859375 -10.7529296875 312.32373046875 -9.0986328125Q313.3388671875 -7.4443359375 315.51953125 -6.6171875Q317.3994140625 -5.865234375 320.36962890625 -5.4892578125Q323.33984375 -5.11328125 325.5205078125 -4.962890625V0.0H286.4189453125V-4.962890625Q288.1484375 -5.11328125 289.99072265625 -5.263671875Q291.8330078125 -5.4140625 293.1865234375 -5.865234375Q295.2919921875 -6.5419921875 296.30712890625 -8.23388671875Q297.322265625 -9.92578125 297.322265625 -12.6328125V-58.4267578125Q297.322265625 -60.7578125 296.23193359375 -63.013671875Q295.1416015625 -65.26953125 293.1865234375 -66.623046875Q291.7578125 -67.525390625 289.802734375 -67.93896484375Q287.84765625 -68.3525390625 285.591796875 -68.5029296875V-73.390625L310.255859375 -75.044921875L311.30859375 -73.9921875V-63.5400390625H311.6845703125Q316.3466796875 -69.630859375 322.0615234375 -72.7890625Q327.7763671875 -75.947265625 332.513671875 -75.947265625Q337.2509765625 -75.947265625 340.22119140625 -72.8642578125Q343.19140625 -69.78125 343.19140625 -64.5927734375Z"/></g>
  <g class="outlined-text wordmark" fill="#FFF6E8" aria-hidden="true" data-text-source="the"><path d="M136.244140625 128.779296875Q132.71875 128.779296875 131.0859375 127.3505859375Q129.453125 125.921875 129.453125 123.25Q129.453125 122.396484375 129.564453125 121.6357421875Q129.67578125 120.875 129.861328125 119.91015625L135.61328125 95.12109375H129.0078125L129.787109375 91.744140625H136.541015625L139.138671875 80.87109375H145.818359375L143.294921875 91.744140625H153.6484375L152.869140625 95.12109375H142.58984375L137.83984375 115.568359375Q137.505859375 116.978515625 137.283203125 118.2958984375Q137.060546875 119.61328125 137.060546875 120.541015625Q137.060546875 122.58203125 138.0810546875 123.5283203125Q139.1015625 124.474609375 141.7734375 124.474609375Q142.73828125 124.474609375 144.482421875 124.2333984375Q146.2265625 123.9921875 147.19140625 123.62109375L146.560546875 126.330078125Q143.962890625 127.33203125 141.662109375 128.0556640625Q139.361328125 128.779296875 136.244140625 128.779296875Z"/><path d="M191.982421875 123.6953125 191.42578125 126.0703125Q188.0859375 127.40625 186.23046875 128.0185546875Q184.375 128.630859375 182.482421875 128.630859375Q179.513671875 128.630859375 178.029296875 127.0908203125Q176.544921875 125.55078125 176.544921875 123.287109375Q176.544921875 122.470703125 176.693359375 121.4873046875Q176.841796875 120.50390625 177.17578125 119.16796875L180.8125 105.326171875Q181.220703125 103.73046875 181.4619140625 102.431640625Q181.703125 101.1328125 181.703125 100.353515625Q181.703125 97.8671875 180.515625 96.419921875Q179.328125 94.97265625 176.990234375 94.97265625Q174.615234375 94.97265625 171.8505859375 96.494140625Q169.0859375 98.015625 166.599609375 100.76171875L160.328125 128.0H153.42578125L164.447265625 80.240234375Q164.6328125 79.38671875 164.7626953125 78.79296875Q164.892578125 78.19921875 164.892578125 77.53125Q164.892578125 76.1953125 164.447265625 75.4716796875Q164.001953125 74.748046875 163.185546875 74.376953125Q162.48046875 74.04296875 161.255859375 73.931640625Q160.03125 73.8203125 158.806640625 73.671875L159.326171875 71.408203125L173.09375 70.5546875L173.46484375 71.111328125L167.52734375 96.791015625H167.67578125Q171.498046875 93.7109375 174.50390625 92.1337890625Q177.509765625 90.556640625 181.33203125 90.556640625Q184.89453125 90.556640625 186.8984375 92.6162109375Q188.90234375 94.67578125 188.90234375 98.015625Q188.90234375 98.68359375 188.6982421875 100.390625Q188.494140625 102.09765625 188.048828125 103.767578125L184.931640625 115.6796875Q184.634765625 116.8671875 184.30078125 118.4072265625Q183.966796875 119.947265625 183.966796875 120.80078125Q183.966796875 122.916015625 184.89453125 123.6767578125Q185.822265625 124.4375 187.9375 124.4375Q188.642578125 124.4375 189.9599609375 124.1962890625Q191.27734375 123.955078125 191.982421875 123.6953125Z"/><path d="M228.498046875 98.275390625Q228.498046875 102.208984375 226.0302734375 105.029296875Q223.5625 107.849609375 218.849609375 109.51953125Q215.3984375 110.78125 211.873046875 111.560546875Q208.34765625 112.33984375 204.080078125 112.859375Q204.080078125 118.72265625 206.2509765625 121.8212890625Q208.421875 124.919921875 212.615234375 124.919921875Q216.326171875 124.919921875 219.1650390625 123.064453125Q222.00390625 121.208984375 224.75 117.53515625L226.865234375 119.09375Q223.896484375 123.62109375 219.443359375 126.330078125Q214.990234375 129.0390625 210.203125 129.0390625Q203.634765625 129.0390625 200.1650390625 125.365234375Q196.6953125 121.69140625 196.6953125 114.9375Q196.6953125 110.26171875 198.1611328125 106.0126953125Q199.626953125 101.763671875 202.447265625 98.23828125Q205.193359375 94.787109375 209.1826171875 92.671875Q213.171875 90.556640625 217.99609375 90.556640625Q223.33984375 90.556640625 225.9189453125 92.7275390625Q228.498046875 94.8984375 228.498046875 98.275390625ZM221.669921875 97.34765625Q221.669921875 95.900390625 221.26171875 95.0654296875Q220.853515625 94.23046875 220.22265625 93.822265625Q219.5546875 93.376953125 218.8125 93.265625Q218.0703125 93.154296875 217.291015625 93.154296875Q212.837890625 93.154296875 209.0712890625 98.052734375Q205.3046875 102.951171875 204.302734375 110.26171875Q206.900390625 109.890625 210.166015625 109.2041015625Q213.431640625 108.517578125 215.583984375 107.404296875Q218.6640625 105.80859375 220.1669921875 103.3037109375Q221.669921875 100.798828125 221.669921875 97.34765625Z"/></g>
  <g class="outlined-text wordmark" fill="#FFF6E8" aria-hidden="true" data-text-source="Parks"><path d="M371.03125 47.6162109375Q371.03125 55.962890625 367.76025390625 62.39208984375Q364.4892578125 68.8212890625 358.69921875 73.0322265625Q352.984375 77.2431640625 346.1416015625 79.1982421875Q339.298828125 81.1533203125 331.62890625 81.1533203125H319.6728515625V113.4873046875Q319.6728515625 116.119140625 320.53759765625 118.11181640625Q321.40234375 120.1044921875 324.109375 121.1572265625Q325.462890625 121.68359375 328.88427734375 122.134765625Q332.3056640625 122.5859375 335.1630859375 122.6611328125V128.0H289.369140625V122.6611328125Q291.173828125 122.5107421875 294.59521484375 122.134765625Q298.0166015625 121.7587890625 299.3701171875 121.1572265625Q301.6259765625 120.1796875 302.64111328125 118.2998046875Q303.65625 116.419921875 303.65625 113.4873046875V36.4873046875Q303.65625 33.85546875 302.904296875 31.75Q302.15234375 29.64453125 299.3701171875 28.591796875Q296.5126953125 27.6142578125 293.69287109375 27.20068359375Q290.873046875 26.787109375 288.8427734375 26.63671875V21.2978515625H337.5693359375Q352.4580078125 21.2978515625 361.74462890625 28.47900390625Q371.03125 35.66015625 371.03125 47.6162109375ZM348.171875 65.8134765625Q350.728515625 62.2041015625 351.5556640625 58.33154296875Q352.3828125 54.458984375 352.3828125 51.3759765625Q352.3828125 47.08984375 351.36767578125 42.6533203125Q350.3525390625 38.216796875 347.87109375 34.908203125Q345.2392578125 31.3740234375 340.953125 29.4189453125Q336.6669921875 27.4638671875 330.275390625 27.4638671875H319.6728515625V74.611328125H327.3427734375Q335.4638671875 74.611328125 340.53955078125 72.09228515625Q345.615234375 69.5732421875 348.171875 65.8134765625Z"/><path d="M451.5654296875 126.646484375Q448.03125 127.9248046875 445.36181640625 128.71435546875Q442.6923828125 129.50390625 439.30859375 129.50390625Q433.443359375 129.50390625 429.94677734375 126.75927734375Q426.4501953125 124.0146484375 425.47265625 118.7509765625H425.021484375Q420.1337890625 124.1650390625 414.53173828125 127.0224609375Q408.9296875 129.8798828125 401.0341796875 129.8798828125Q392.6875 129.8798828125 387.31103515625 124.7666015625Q381.9345703125 119.6533203125 381.9345703125 111.3818359375Q381.9345703125 107.095703125 383.1376953125 103.7119140625Q384.3408203125 100.328125 386.7470703125 97.62109375Q388.626953125 95.365234375 391.7099609375 93.59814453125Q394.79296875 91.8310546875 397.5 90.7783203125Q400.8837890625 89.5 411.22314453125 86.041015625Q421.5625 82.58203125 425.171875 80.626953125V73.1826171875Q425.171875 72.205078125 424.75830078125 69.4228515625Q424.3447265625 66.640625 422.9912109375 64.1591796875Q421.4873046875 61.376953125 418.74267578125 59.30908203125Q415.998046875 57.2412109375 410.9599609375 57.2412109375Q407.5009765625 57.2412109375 404.53076171875 58.40673828125Q401.560546875 59.572265625 400.357421875 60.8505859375Q400.357421875 62.3544921875 401.07177734375 65.287109375Q401.7861328125 68.2197265625 401.7861328125 70.701171875Q401.7861328125 73.3330078125 399.41748046875 75.513671875Q397.048828125 77.6943359375 392.837890625 77.6943359375Q389.078125 77.6943359375 387.31103515625 75.02490234375Q385.5439453125 72.35546875 385.5439453125 69.046875Q385.5439453125 65.587890625 387.98779296875 62.4296875Q390.431640625 59.271484375 394.341796875 56.7900390625Q397.7255859375 54.6845703125 402.5380859375 53.21826171875Q407.3505859375 51.751953125 411.9375 51.751953125Q418.25390625 51.751953125 422.95361328125 52.61669921875Q427.6533203125 53.4814453125 431.48828125 56.3388671875Q435.3232421875 59.12109375 437.31591796875 63.89599609375Q439.30859375 68.6708984375 439.30859375 76.1904296875Q439.30859375 86.943359375 439.0830078125 95.25244140625Q438.857421875 103.5615234375 438.857421875 113.412109375Q438.857421875 116.3447265625 439.87255859375 118.07421875Q440.8876953125 119.8037109375 442.9931640625 121.0068359375Q444.12109375 121.68359375 446.56494140625 121.7587890625Q449.0087890625 121.833984375 451.5654296875 121.833984375ZM425.322265625 86.943359375Q418.9306640625 88.8232421875 414.1181640625 90.6279296875Q409.3056640625 92.4326171875 405.169921875 95.1396484375Q401.41015625 97.6962890625 399.2294921875 101.19287109375Q397.048828125 104.689453125 397.048828125 109.501953125Q397.048828125 115.7431640625 400.31982421875 118.67578125Q403.5908203125 121.6083984375 408.62890625 121.6083984375Q413.9677734375 121.6083984375 418.0283203125 119.01416015625Q422.0888671875 116.419921875 424.87109375 112.8857421875Z"/><path d="M515.70703125 63.4072265625Q515.70703125 67.2421875 513.8271484375 70.21240234375Q511.947265625 73.1826171875 508.037109375 73.1826171875Q503.826171875 73.1826171875 501.60791015625 71.001953125Q499.3896484375 68.8212890625 499.3896484375 66.189453125Q499.3896484375 64.53515625 499.65283203125 63.181640625Q499.916015625 61.828125 500.1416015625 60.474609375Q496.607421875 60.474609375 491.8701171875 63.33203125Q487.1328125 66.189453125 483.82421875 71.453125V114.615234375Q483.82421875 117.2470703125 484.83935546875 118.9013671875Q485.8544921875 120.5556640625 488.03515625 121.3828125Q489.9150390625 122.134765625 492.88525390625 122.5107421875Q495.85546875 122.88671875 498.0361328125 123.037109375V128.0H458.9345703125V123.037109375Q460.6640625 122.88671875 462.50634765625 122.736328125Q464.3486328125 122.5859375 465.7021484375 122.134765625Q467.8076171875 121.4580078125 468.82275390625 119.76611328125Q469.837890625 118.07421875 469.837890625 115.3671875V69.5732421875Q469.837890625 67.2421875 468.74755859375 64.986328125Q467.6572265625 62.73046875 465.7021484375 61.376953125Q464.2734375 60.474609375 462.318359375 60.06103515625Q460.36328125 59.6474609375 458.107421875 59.4970703125V54.609375L482.771484375 52.955078125L483.82421875 54.0078125V64.4599609375H484.2001953125Q488.8623046875 58.369140625 494.5771484375 55.2109375Q500.2919921875 52.052734375 505.029296875 52.052734375Q509.7666015625 52.052734375 512.73681640625 55.1357421875Q515.70703125 58.21875 515.70703125 63.4072265625Z"/><path d="M600.6025390625 128.0H578.1943359375Q572.3291015625 119.5029296875 565.63671875 109.802734375Q558.9443359375 100.1025390625 551.7255859375 90.9287109375L545.5595703125 96.71875V114.314453125Q545.5595703125 117.021484375 546.537109375 118.78857421875Q547.5146484375 120.5556640625 549.6953125 121.3828125Q551.5 122.134765625 553.154296875 122.5107421875Q554.80859375 122.88671875 556.9892578125 123.037109375V128.0H520.5947265625V123.037109375Q522.32421875 122.88671875 524.2041015625 122.69873046875Q526.083984375 122.5107421875 527.3623046875 122.134765625Q529.4677734375 121.4580078125 530.5205078125 119.76611328125Q531.5732421875 118.07421875 531.5732421875 115.3671875V29.193359375Q531.5732421875 26.4111328125 530.40771484375 23.96728515625Q529.2421875 21.5234375 527.3623046875 20.2451171875Q525.783203125 19.0419921875 522.43701171875 18.666015625Q519.0908203125 18.2900390625 517.060546875 18.1396484375V13.3271484375L544.5068359375 11.59765625L545.5595703125 12.7255859375V91.154296875Q551.4248046875 85.2890625 558.22998046875 78.55908203125Q565.03515625 71.8291015625 569.697265625 66.5654296875Q570.298828125 65.888671875 571.01318359375 64.79833984375Q571.7275390625 63.7080078125 571.7275390625 63.03125Q571.7275390625 61.0009765625 568.45654296875 60.0234375Q565.185546875 59.0458984375 562.177734375 58.669921875V53.857421875H594.8125V58.51953125Q588.49609375 60.3994140625 583.64599609375 63.21923828125Q578.7958984375 66.0390625 576.2392578125 68.294921875Q574.4345703125 69.798828125 571.1259765625 73.1826171875Q567.8173828125 76.56640625 561.876953125 82.0556640625Q568.04296875 89.650390625 575.75048828125 100.2529296875Q583.4580078125 110.85546875 586.9921875 115.5927734375Q590.30078125 120.029296875 592.9326171875 121.3828125Q595.564453125 122.736328125 600.6025390625 123.037109375Z"/><path d="M653.46484375 91.6806640625Q656.5478515625 94.3876953125 658.2021484375 97.921875Q659.8564453125 101.4560546875 659.8564453125 106.5693359375Q659.8564453125 116.87109375 652.14892578125 123.4130859375Q644.44140625 129.955078125 632.1845703125 129.955078125Q625.7177734375 129.955078125 620.26611328125 127.6240234375Q614.814453125 125.29296875 612.4833984375 123.337890625L610.9794921875 128.2255859375H605.33984375L604.587890625 102.43359375H609.7763671875Q610.3779296875 105.3662109375 612.3330078125 109.2763671875Q614.2880859375 113.1865234375 617.0703125 116.3447265625Q620.0029296875 119.6533203125 624.10107421875 121.9091796875Q628.19921875 124.1650390625 633.3125 124.1650390625Q640.53125 124.1650390625 644.44140625 120.89404296875Q648.3515625 117.623046875 648.3515625 111.5322265625Q648.3515625 108.3740234375 647.11083984375 106.08056640625Q645.8701171875 103.787109375 643.4638671875 102.0576171875Q640.982421875 100.328125 637.373046875 98.93701171875Q633.763671875 97.5458984375 629.3271484375 96.1923828125Q625.79296875 95.1396484375 621.46923828125 93.29736328125Q617.1455078125 91.455078125 614.0625 88.9736328125Q610.75390625 86.341796875 608.6484375 82.5068359375Q606.54296875 78.671875 606.54296875 73.4833984375Q606.54296875 64.384765625 613.310546875 58.068359375Q620.078125 51.751953125 631.4326171875 51.751953125Q635.7939453125 51.751953125 640.34326171875 52.8798828125Q644.892578125 54.0078125 647.75 55.5869140625L649.4794921875 51.6767578125H654.8935546875L656.021484375 75.513671875H650.8330078125Q649.25390625 67.54296875 644.02783203125 62.54248046875Q638.8017578125 57.5419921875 631.2822265625 57.5419921875Q625.1162109375 57.5419921875 621.58203125 60.625Q618.0478515625 63.7080078125 618.0478515625 68.0693359375Q618.0478515625 71.453125 619.21337890625 73.708984375Q620.37890625 75.96484375 622.7099609375 77.5439453125Q624.9658203125 79.0478515625 628.38720703125 80.36376953125Q631.80859375 81.6796875 636.8466796875 83.333984375Q641.8095703125 84.9130859375 646.20849609375 87.0185546875Q650.607421875 89.1240234375 653.46484375 91.6806640625Z"/></g>
  <path d="M287 166 C415 206 572 186 704 164" fill="none" stroke="#E9AD2E" stroke-width="6" stroke-linecap="round"/>
  <g opacity="1">
<path d="M740 110 L744.4 125.6 L760 130 L744.4 134.4 L740 150 L735.6 134.4 L720 130 L735.6 125.6 Z" fill="#E9AD2E"/>
</g>
  <g class="outlined-text tagline" fill="#BEEAF0" aria-hidden="true" data-text-source="Find the magic between park days."><path d="M70.686 215.928H86.224V219.804H74.97V226.128H85.578V230.004H74.97V240.0H70.686Z"/><path d="M91.25599999999999 223.68H95.33599999999998V240.0H91.25599999999999ZM90.678 218.138Q90.678 217.152 91.40899999999999 216.421Q92.13999999999999 215.69 93.26199999999999 215.69Q94.38399999999999 215.69 95.14899999999999 216.387Q95.91399999999999 217.084 95.91399999999999 218.138Q95.91399999999999 219.192 95.14899999999999 219.889Q94.38399999999999 220.586 93.26199999999999 220.586Q92.13999999999999 220.586 91.40899999999999 219.85500000000002Q90.678 219.124 90.678 218.138Z"/><path d="M101.38799999999999 223.68H105.264V226.298H105.332Q105.91 225.074 107.1 224.173Q108.28999999999999 223.272 110.33 223.272Q111.96199999999999 223.272 113.101 223.816Q114.24 224.36 114.954 225.244Q115.66799999999999 226.128 115.97399999999999 227.284Q116.28 228.44 116.28 229.698V240.0H112.19999999999999V231.738Q112.19999999999999 231.058 112.13199999999999 230.225Q112.064 229.392 111.77499999999999 228.661Q111.48599999999999 227.93 110.874 227.437Q110.262 226.944 109.208 226.944Q108.18799999999999 226.944 107.49099999999999 227.284Q106.794 227.624 106.335 228.202Q105.87599999999999 228.78 105.672 229.52800000000002Q105.46799999999999 230.276 105.46799999999999 231.09199999999998V240.0H101.38799999999999Z"/><path d="M135.184 237.552H135.11599999999999Q134.23199999999997 239.048 132.736 239.728Q131.23999999999998 240.408 129.50599999999997 240.408Q127.60199999999999 240.408 126.12299999999999 239.745Q124.64399999999998 239.082 123.58999999999997 237.926Q122.53599999999999 236.77 121.99199999999999 235.20600000000002Q121.44799999999998 233.642 121.44799999999998 231.84Q121.44799999999998 230.038 122.02599999999998 228.474Q122.60399999999998 226.91 123.64099999999999 225.75400000000002Q124.67799999999998 224.598 126.13999999999999 223.935Q127.60199999999999 223.272 129.33599999999998 223.272Q130.492 223.272 131.37599999999998 223.51Q132.26 223.748 132.94 224.122Q133.61999999999998 224.496 134.09599999999998 224.921Q134.57199999999997 225.346 134.878 225.754H134.98V214.296H139.05999999999997V240.0H135.184ZM125.52799999999999 231.84Q125.52799999999999 232.792 125.85099999999998 233.676Q126.17399999999998 234.56 126.80299999999998 235.24Q127.43199999999999 235.92 128.31599999999997 236.32799999999997Q129.2 236.736 130.32199999999997 236.736Q131.444 236.736 132.32799999999997 236.32799999999997Q133.212 235.92 133.84099999999998 235.24Q134.46999999999997 234.56 134.79299999999998 233.676Q135.11599999999999 232.792 135.11599999999999 231.84Q135.11599999999999 230.888 134.79299999999998 230.00400000000002Q134.46999999999997 229.12 133.84099999999998 228.44Q133.212 227.76 132.32799999999997 227.35199999999998Q131.444 226.944 130.32199999999997 226.944Q129.2 226.944 128.31599999999997 227.35199999999998Q127.43199999999999 227.76 126.80299999999998 228.44Q126.17399999999998 229.12 125.85099999999998 230.00400000000002Q125.52799999999999 230.888 125.52799999999999 231.84Z"/><path d="M154.564 227.148V223.68H157.93V218.954H162.01000000000002V223.68H166.49800000000002V227.148H162.01000000000002V234.288Q162.01000000000002 235.512 162.469 236.226Q162.928 236.94 164.288 236.94Q164.832 236.94 165.478 236.821Q166.124 236.702 166.49800000000002 236.43V239.864Q165.852 240.17 164.917 240.289Q163.982 240.408 163.268 240.408Q161.636 240.408 160.599 240.051Q159.562 239.694 158.967 238.963Q158.372 238.232 158.151 237.144Q157.93 236.056 157.93 234.628V227.148Z"/><path d="M175.168 225.958H175.23600000000002Q175.71200000000002 224.938 176.919 224.105Q178.126 223.272 180.03 223.272Q181.662 223.272 182.801 223.816Q183.94 224.36 184.654 225.244Q185.36800000000002 226.128 185.67400000000004 227.284Q185.98000000000002 228.44 185.98000000000002 229.698V240.0H181.9V231.738Q181.9 231.058 181.832 230.225Q181.764 229.392 181.47500000000002 228.661Q181.186 227.93 180.574 227.437Q179.96200000000002 226.944 178.90800000000002 226.944Q177.888 226.944 177.191 227.284Q176.494 227.624 176.03500000000003 228.202Q175.57600000000002 228.78 175.372 229.52800000000002Q175.168 230.276 175.168 231.09199999999998V240.0H171.08800000000002V214.296H175.168Z"/><path d="M195.22800000000004 233.268Q195.43200000000004 235.10399999999998 196.65600000000006 236.124Q197.88000000000005 237.144 199.61400000000003 237.144Q201.14400000000003 237.144 202.18100000000004 236.515Q203.21800000000005 235.886 204.00000000000006 234.934L206.92400000000004 237.144Q205.49600000000004 238.912 203.72800000000004 239.66Q201.96000000000004 240.408 200.02200000000005 240.408Q198.18600000000004 240.408 196.55400000000003 239.796Q194.92200000000005 239.184 193.73200000000003 238.062Q192.54200000000003 236.94 191.84500000000003 235.35899999999998Q191.14800000000005 233.778 191.14800000000005 231.84Q191.14800000000005 229.902 191.84500000000003 228.321Q192.54200000000003 226.74 193.73200000000003 225.618Q194.92200000000005 224.496 196.55400000000003 223.88400000000001Q198.18600000000004 223.272 200.02200000000005 223.272Q201.72200000000004 223.272 203.13300000000004 223.867Q204.54400000000004 224.462 205.54700000000003 225.584Q206.55000000000004 226.706 207.11100000000005 228.355Q207.67200000000005 230.004 207.67200000000005 232.146V233.268ZM203.59200000000004 230.208Q203.55800000000005 228.406 202.47000000000003 227.369Q201.38200000000003 226.332 199.44400000000005 226.332Q197.60800000000003 226.332 196.53700000000003 227.386Q195.46600000000004 228.44 195.22800000000004 230.208Z"/><path d="M224.09400000000005 223.68H227.97000000000006V226.23H228.03800000000007Q228.58200000000005 225.074 229.78900000000004 224.173Q230.99600000000007 223.272 233.03600000000006 223.272Q236.87800000000004 223.272 238.13600000000005 226.298Q239.02000000000007 224.734 240.34600000000006 224.003Q241.67200000000005 223.272 243.50800000000007 223.272Q245.14000000000004 223.272 246.26200000000006 223.816Q247.38400000000007 224.36 248.08100000000007 225.312Q248.77800000000005 226.264 249.08400000000006 227.539Q249.39000000000004 228.814 249.39000000000004 230.276V240.0H245.31000000000006V230.752Q245.31000000000006 230.004 245.17400000000006 229.30700000000002Q245.03800000000007 228.61 244.69800000000006 228.08300000000003Q244.35800000000006 227.556 243.78000000000006 227.25Q243.20200000000006 226.944 242.28400000000005 226.944Q241.33200000000005 226.944 240.66900000000004 227.301Q240.00600000000006 227.658 239.58100000000007 228.253Q239.15600000000006 228.848 238.96900000000005 229.613Q238.78200000000007 230.378 238.78200000000007 231.16V240.0H234.70200000000006V230.276Q234.70200000000006 228.746 234.05600000000004 227.845Q233.41000000000005 226.944 231.91400000000004 226.944Q230.89400000000006 226.944 230.19700000000006 227.284Q229.50000000000006 227.624 229.04100000000005 228.202Q228.58200000000005 228.78 228.37800000000004 229.52800000000002Q228.17400000000006 230.276 228.17400000000006 231.09199999999998V240.0H224.09400000000005Z"/><path d="M265.40400000000005 237.756H265.3020000000001Q264.41800000000006 239.15 263.05800000000005 239.779Q261.69800000000004 240.408 260.06600000000003 240.408Q258.9440000000001 240.408 257.87300000000005 240.10199999999998Q256.8020000000001 239.796 255.96900000000005 239.184Q255.13600000000005 238.572 254.62600000000003 237.654Q254.11600000000004 236.736 254.11600000000004 235.512Q254.11600000000004 234.186 254.59200000000004 233.251Q255.06800000000004 232.316 255.86700000000005 231.687Q256.66600000000005 231.058 257.72 230.684Q258.77400000000006 230.31 259.91300000000007 230.123Q261.0520000000001 229.936 262.2080000000001 229.885Q263.36400000000003 229.834 264.38400000000007 229.834H265.40400000000005V229.392Q265.40400000000005 227.862 264.35 227.09699999999998Q263.29600000000005 226.332 261.66400000000004 226.332Q260.37200000000007 226.332 259.25000000000006 226.791Q258.12800000000004 227.25 257.31200000000007 228.032L255.17000000000004 225.89Q256.53000000000003 224.496 258.34900000000005 223.88400000000001Q260.16800000000006 223.272 262.10600000000005 223.272Q263.84000000000003 223.272 265.03000000000003 223.663Q266.22 224.054 267.00200000000007 224.666Q267.78400000000005 225.278 268.20900000000006 226.077Q268.63400000000007 226.876 268.821 227.692Q269.00800000000004 228.508 269.04200000000003 229.27300000000002Q269.0760000000001 230.038 269.0760000000001 230.61599999999999V240.0H265.40400000000005ZM265.16600000000005 232.69H264.31600000000003Q263.46600000000007 232.69 262.41200000000003 232.75799999999998Q261.35800000000006 232.826 260.42300000000006 233.08100000000002Q259.48800000000006 233.336 258.84200000000004 233.829Q258.196 234.322 258.196 235.206Q258.196 235.784 258.451 236.175Q258.7060000000001 236.566 259.11400000000003 236.83800000000002Q259.52200000000005 237.11 260.03200000000004 237.229Q260.54200000000003 237.348 261.0520000000001 237.348Q263.1600000000001 237.348 264.16300000000007 236.34500000000003Q265.16600000000005 235.342 265.16600000000005 233.608Z"/><path d="M291.61800000000005 223.68V238.538Q291.61800000000005 240.748 291.07400000000007 242.53300000000002Q290.53000000000003 244.318 289.3910000000001 245.55900000000003Q288.25200000000007 246.8 286.51800000000003 247.48000000000002Q284.78400000000005 248.16 282.40400000000005 248.16Q280.12600000000003 248.16 278.086 247.582Q276.04600000000005 247.004 274.31200000000007 245.474L276.76000000000005 242.142Q277.98400000000004 243.264 279.31000000000006 243.876Q280.636 244.488 282.37000000000006 244.488Q283.83200000000005 244.488 284.83500000000004 244.07999999999998Q285.838 243.672 286.433 242.958Q287.028 242.244 287.283 241.24099999999999Q287.53800000000007 240.238 287.53800000000007 239.014V237.824H287.47Q286.58600000000007 239.014 285.124 239.609Q283.66200000000003 240.204 282.13200000000006 240.204Q280.29600000000005 240.204 278.80000000000007 239.541Q277.30400000000003 238.878 276.23300000000006 237.75599999999997Q275.16200000000003 236.634 274.58400000000006 235.10399999999998Q274.00600000000003 233.574 274.00600000000003 231.84Q274.00600000000003 230.038 274.55000000000007 228.474Q275.09400000000005 226.91 276.148 225.75400000000002Q277.20200000000006 224.598 278.68100000000004 223.935Q280.16 223.272 282.064 223.272Q283.79800000000006 223.272 285.2940000000001 223.952Q286.7900000000001 224.632 287.67400000000004 226.128H287.7420000000001V223.68ZM282.91400000000004 226.944Q281.826 226.944 280.942 227.301Q280.05800000000005 227.658 279.4290000000001 228.28699999999998Q278.80000000000007 228.916 278.4430000000001 229.817Q278.08600000000007 230.718 278.08600000000007 231.806Q278.08600000000007 232.792 278.4430000000001 233.642Q278.80000000000007 234.492 279.446 235.13799999999998Q280.09200000000004 235.784 280.97600000000006 236.15800000000002Q281.86000000000007 236.532 282.88000000000005 236.532Q284.00200000000007 236.532 284.903 236.15800000000002Q285.80400000000003 235.784 286.43300000000005 235.155Q287.06200000000007 234.526 287.40200000000004 233.642Q287.7420000000001 232.758 287.7420000000001 231.738Q287.7420000000001 229.596 286.45000000000005 228.26999999999998Q285.1580000000001 226.944 282.91400000000004 226.944Z"/><path d="M297.6700000000001 223.68H301.75000000000006V240.0H297.6700000000001ZM297.0920000000001 218.138Q297.0920000000001 217.152 297.8230000000001 216.421Q298.5540000000001 215.69 299.6760000000001 215.69Q300.79800000000006 215.69 301.5630000000001 216.387Q302.3280000000001 217.084 302.3280000000001 218.138Q302.3280000000001 219.192 301.5630000000001 219.889Q300.79800000000006 220.586 299.6760000000001 220.586Q298.5540000000001 220.586 297.8230000000001 219.85500000000002Q297.0920000000001 219.124 297.0920000000001 218.138Z"/><path d="M318.95400000000006 228.576Q318.24000000000007 227.828 317.4580000000001 227.386Q316.67600000000004 226.944 315.86000000000007 226.944Q314.73800000000006 226.944 313.85400000000004 227.35199999999998Q312.9700000000001 227.76 312.34100000000007 228.44Q311.71200000000005 229.12 311.38900000000007 230.00400000000002Q311.0660000000001 230.888 311.0660000000001 231.84Q311.0660000000001 232.792 311.38900000000007 233.676Q311.71200000000005 234.56 312.34100000000007 235.24Q312.9700000000001 235.92 313.85400000000004 236.32799999999997Q314.73800000000006 236.736 315.86000000000007 236.736Q316.81200000000007 236.736 317.62800000000004 236.345Q318.4440000000001 235.954 319.02200000000005 235.206L321.7420000000001 238.13Q321.13000000000005 238.742 320.331 239.184Q319.53200000000004 239.626 318.71600000000007 239.898Q317.9000000000001 240.17 317.15200000000004 240.289Q316.40400000000005 240.408 315.86000000000007 240.408Q314.02400000000006 240.408 312.39200000000005 239.796Q310.76000000000005 239.184 309.57000000000005 238.062Q308.38000000000005 236.94 307.68300000000005 235.35899999999998Q306.98600000000005 233.778 306.98600000000005 231.84Q306.98600000000005 229.902 307.68300000000005 228.321Q308.38000000000005 226.74 309.57000000000005 225.618Q310.76000000000005 224.496 312.39200000000005 223.88400000000001Q314.02400000000006 223.272 315.86000000000007 223.272Q317.4240000000001 223.272 319.0050000000001 223.867Q320.58600000000007 224.462 321.77600000000007 225.754Z"/><path d="M336.9740000000001 214.296H341.0540000000001V225.754H341.1560000000001Q341.4620000000001 225.346 341.9380000000001 224.921Q342.4140000000001 224.496 343.0940000000001 224.122Q343.7740000000001 223.748 344.65800000000013 223.51Q345.5420000000001 223.272 346.6980000000001 223.272Q348.4320000000001 223.272 349.8940000000001 223.935Q351.3560000000001 224.598 352.3930000000001 225.75400000000002Q353.43000000000006 226.91 354.00800000000004 228.474Q354.58600000000007 230.038 354.58600000000007 231.84Q354.58600000000007 233.642 354.0420000000001 235.20600000000002Q353.4980000000001 236.77 352.4440000000001 237.926Q351.3900000000001 239.082 349.8940000000001 239.745Q348.3980000000001 240.408 346.5280000000001 240.408Q344.7940000000001 240.408 343.2980000000001 239.728Q341.8020000000001 239.048 340.9180000000001 237.552H340.8500000000001V240.0H336.9740000000001ZM350.5060000000001 231.84Q350.5060000000001 230.888 350.1830000000001 230.00400000000002Q349.86000000000007 229.12 349.2310000000001 228.44Q348.6020000000001 227.76 347.7180000000001 227.35199999999998Q346.8340000000001 226.944 345.7120000000001 226.944Q344.5900000000001 226.944 343.70600000000013 227.35199999999998Q342.8220000000001 227.76 342.1930000000001 228.44Q341.5640000000001 229.12 341.2410000000001 230.00400000000002Q340.9180000000001 230.888 340.9180000000001 231.84Q340.9180000000001 232.792 341.2410000000001 233.676Q341.5640000000001 234.56 342.1930000000001 235.24Q342.8220000000001 235.92 343.70600000000013 236.32799999999997Q344.5900000000001 236.736 345.7120000000001 236.736Q346.8340000000001 236.736 347.7180000000001 236.32799999999997Q348.6020000000001 235.92 349.2310000000001 235.24Q349.86000000000007 234.56 350.1830000000001 233.676Q350.5060000000001 232.792 350.5060000000001 231.84Z"/><path d="M363.01800000000014 233.268Q363.2220000000001 235.10399999999998 364.44600000000014 236.124Q365.67000000000013 237.144 367.4040000000001 237.144Q368.93400000000014 237.144 369.9710000000001 236.515Q371.0080000000001 235.886 371.79000000000013 234.934L374.7140000000001 237.144Q373.2860000000001 238.912 371.51800000000014 239.66Q369.7500000000001 240.408 367.8120000000001 240.408Q365.9760000000001 240.408 364.3440000000001 239.796Q362.7120000000001 239.184 361.5220000000001 238.062Q360.3320000000001 236.94 359.6350000000001 235.35899999999998Q358.9380000000001 233.778 358.9380000000001 231.84Q358.9380000000001 229.902 359.6350000000001 228.321Q360.3320000000001 226.74 361.5220000000001 225.618Q362.7120000000001 224.496 364.3440000000001 223.88400000000001Q365.9760000000001 223.272 367.8120000000001 223.272Q369.5120000000001 223.272 370.9230000000001 223.867Q372.3340000000001 224.462 373.3370000000001 225.584Q374.34000000000015 226.706 374.9010000000001 228.355Q375.4620000000001 230.004 375.4620000000001 232.146V233.268ZM371.3820000000001 230.208Q371.3480000000001 228.406 370.2600000000001 227.369Q369.17200000000014 226.332 367.23400000000015 226.332Q365.39800000000014 226.332 364.3270000000001 227.386Q363.25600000000014 228.44 363.01800000000014 230.208Z"/><path d="M378.72600000000017 227.148V223.68H382.09200000000016V218.954H386.17200000000014V223.68H390.66000000000014V227.148H386.17200000000014V234.288Q386.17200000000014 235.512 386.63100000000014 236.226Q387.09000000000015 236.94 388.45000000000016 236.94Q388.99400000000014 236.94 389.64000000000016 236.821Q390.2860000000002 236.702 390.66000000000014 236.43V239.864Q390.0140000000002 240.17 389.0790000000002 240.289Q388.1440000000002 240.408 387.4300000000002 240.408Q385.7980000000002 240.408 384.7610000000002 240.051Q383.72400000000016 239.694 383.12900000000013 238.963Q382.53400000000016 238.232 382.31300000000016 237.144Q382.09200000000016 236.056 382.09200000000016 234.628V227.148Z"/><path d="M393.00600000000014 223.68H397.42600000000016L400.96200000000016 235.10399999999998H401.03000000000014L404.32800000000015 223.68H408.74800000000016L412.28400000000016 235.10399999999998H412.35200000000015L415.7520000000002 223.68H419.86600000000016L414.3240000000002 240.0H410.2780000000002L406.40200000000016 228.848H406.3340000000002L402.90000000000015 240.0H398.68400000000014Z"/><path d="M426.9040000000002 233.268Q427.1080000000002 235.10399999999998 428.3320000000002 236.124Q429.5560000000002 237.144 431.2900000000002 237.144Q432.8200000000002 237.144 433.8570000000002 236.515Q434.8940000000002 235.886 435.6760000000002 234.934L438.6000000000002 237.144Q437.1720000000002 238.912 435.4040000000002 239.66Q433.6360000000002 240.408 431.6980000000002 240.408Q429.8620000000002 240.408 428.2300000000002 239.796Q426.5980000000002 239.184 425.4080000000002 238.062Q424.2180000000002 236.94 423.5210000000002 235.35899999999998Q422.8240000000002 233.778 422.8240000000002 231.84Q422.8240000000002 229.902 423.5210000000002 228.321Q424.2180000000002 226.74 425.4080000000002 225.618Q426.5980000000002 224.496 428.2300000000002 223.88400000000001Q429.8620000000002 223.272 431.6980000000002 223.272Q433.3980000000002 223.272 434.8090000000002 223.867Q436.2200000000002 224.462 437.2230000000002 225.584Q438.2260000000002 226.706 438.7870000000002 228.355Q439.3480000000002 230.004 439.3480000000002 232.146V233.268ZM435.2680000000002 230.208Q435.2340000000002 228.406 434.1460000000002 227.369Q433.0580000000002 226.332 431.12000000000023 226.332Q429.2840000000002 226.332 428.2130000000002 227.386Q427.1420000000002 228.44 426.9040000000002 230.208Z"/><path d="M447.78000000000026 233.268Q447.9840000000002 235.10399999999998 449.2080000000002 236.124Q450.43200000000024 237.144 452.1660000000002 237.144Q453.69600000000025 237.144 454.73300000000023 236.515Q455.7700000000002 235.886 456.55200000000025 234.934L459.4760000000002 237.144Q458.04800000000023 238.912 456.2800000000002 239.66Q454.5120000000002 240.408 452.57400000000024 240.408Q450.7380000000002 240.408 449.1060000000002 239.796Q447.4740000000002 239.184 446.2840000000002 238.062Q445.0940000000002 236.94 444.3970000000002 235.35899999999998Q443.7000000000002 233.778 443.7000000000002 231.84Q443.7000000000002 229.902 444.3970000000002 228.321Q445.0940000000002 226.74 446.2840000000002 225.618Q447.4740000000002 224.496 449.1060000000002 223.88400000000001Q450.7380000000002 223.272 452.57400000000024 223.272Q454.2740000000002 223.272 455.68500000000023 223.867Q457.09600000000023 224.462 458.0990000000003 225.584Q459.10200000000026 226.706 459.66300000000024 228.355Q460.2240000000002 230.004 460.2240000000002 232.146V233.268ZM456.14400000000023 230.208Q456.11000000000024 228.406 455.0220000000003 227.369Q453.93400000000025 226.332 451.9960000000002 226.332Q450.16000000000025 226.332 449.0890000000003 227.386Q448.01800000000026 228.44 447.78000000000026 230.208Z"/><path d="M465.3920000000003 223.68H469.26800000000026V226.298H469.33600000000024Q469.91400000000027 225.074 471.10400000000027 224.173Q472.29400000000027 223.272 474.3340000000003 223.272Q475.9660000000003 223.272 477.10500000000025 223.816Q478.24400000000026 224.36 478.95800000000025 225.244Q479.67200000000025 226.128 479.9780000000003 227.284Q480.2840000000003 228.44 480.2840000000003 229.698V240.0H476.2040000000003V231.738Q476.2040000000003 231.058 476.1360000000003 230.225Q476.06800000000027 229.392 475.7790000000003 228.661Q475.4900000000003 227.93 474.87800000000027 227.437Q474.26600000000025 226.944 473.2120000000003 226.944Q472.1920000000003 226.944 471.4950000000003 227.284Q470.7980000000003 227.624 470.3390000000003 228.202Q469.8800000000003 228.78 469.6760000000003 229.52800000000002Q469.47200000000026 230.276 469.47200000000026 231.09199999999998V240.0H465.3920000000003Z"/><path d="M497.69200000000035 223.68H501.5680000000003V226.128H501.6360000000003Q502.5200000000003 224.632 504.0160000000003 223.952Q505.51200000000034 223.272 507.2460000000003 223.272Q509.1160000000003 223.272 510.6120000000003 223.935Q512.1080000000003 224.598 513.1620000000003 225.75400000000002Q514.2160000000003 226.91 514.7600000000003 228.474Q515.3040000000003 230.038 515.3040000000003 231.84Q515.3040000000003 233.642 514.7260000000003 235.20600000000002Q514.1480000000004 236.77 513.1110000000003 237.926Q512.0740000000003 239.082 510.6120000000003 239.745Q509.1500000000003 240.408 507.41600000000034 240.408Q506.26000000000033 240.408 505.3760000000003 240.17Q504.49200000000036 239.932 503.81200000000035 239.558Q503.13200000000035 239.184 502.65600000000035 238.75900000000001Q502.18000000000035 238.334 501.87400000000036 237.926H501.77200000000033V247.752H497.69200000000035ZM511.22400000000033 231.84Q511.22400000000033 230.888 510.9010000000003 230.00400000000002Q510.5780000000003 229.12 509.9490000000003 228.44Q509.32000000000033 227.76 508.4360000000004 227.35199999999998Q507.55200000000036 226.944 506.43000000000035 226.944Q505.30800000000033 226.944 504.4240000000003 227.35199999999998Q503.54000000000036 227.76 502.91100000000034 228.44Q502.2820000000003 229.12 501.9590000000003 230.00400000000002Q501.6360000000003 230.888 501.6360000000003 231.84Q501.6360000000003 232.792 501.9590000000003 233.676Q502.2820000000003 234.56 502.91100000000034 235.24Q503.54000000000036 235.92 504.4240000000003 236.32799999999997Q505.30800000000033 236.736 506.43000000000035 236.736Q507.55200000000036 236.736 508.4360000000004 236.32799999999997Q509.32000000000033 235.92 509.9490000000003 235.24Q510.5780000000003 234.56 510.9010000000003 233.676Q511.22400000000033 232.792 511.22400000000033 231.84Z"/><path d="M530.6720000000003 237.756H530.5700000000003Q529.6860000000003 239.15 528.3260000000002 239.779Q526.9660000000003 240.408 525.3340000000003 240.408Q524.2120000000003 240.408 523.1410000000003 240.10199999999998Q522.0700000000003 239.796 521.2370000000003 239.184Q520.4040000000003 238.572 519.8940000000003 237.654Q519.3840000000004 236.736 519.3840000000004 235.512Q519.3840000000004 234.186 519.8600000000004 233.251Q520.3360000000004 232.316 521.1350000000003 231.687Q521.9340000000003 231.058 522.9880000000003 230.684Q524.0420000000003 230.31 525.1810000000003 230.123Q526.3200000000003 229.936 527.4760000000003 229.885Q528.6320000000003 229.834 529.6520000000003 229.834H530.6720000000003V229.392Q530.6720000000003 227.862 529.6180000000003 227.09699999999998Q528.5640000000003 226.332 526.9320000000004 226.332Q525.6400000000003 226.332 524.5180000000003 226.791Q523.3960000000003 227.25 522.5800000000003 228.032L520.4380000000003 225.89Q521.7980000000003 224.496 523.6170000000003 223.88400000000001Q525.4360000000003 223.272 527.3740000000004 223.272Q529.1080000000003 223.272 530.2980000000002 223.663Q531.4880000000003 224.054 532.2700000000003 224.666Q533.0520000000004 225.278 533.4770000000003 226.077Q533.9020000000003 226.876 534.0890000000003 227.692Q534.2760000000003 228.508 534.3100000000003 229.27300000000002Q534.3440000000003 230.038 534.3440000000003 230.61599999999999V240.0H530.6720000000003ZM530.4340000000003 232.69H529.5840000000003Q528.7340000000003 232.69 527.6800000000003 232.75799999999998Q526.6260000000003 232.826 525.6910000000003 233.08100000000002Q524.7560000000003 233.336 524.1100000000004 233.829Q523.4640000000003 234.322 523.4640000000003 235.206Q523.4640000000003 235.784 523.7190000000003 236.175Q523.9740000000003 236.566 524.3820000000003 236.83800000000002Q524.7900000000003 237.11 525.3000000000003 237.229Q525.8100000000003 237.348 526.3200000000003 237.348Q528.4280000000003 237.348 529.4310000000003 236.34500000000003Q530.4340000000003 235.342 530.4340000000003 233.608Z"/><path d="M540.0900000000004 223.68H544.1700000000004V226.264H544.2380000000004Q544.9180000000003 224.836 546.1760000000004 224.054Q547.4340000000003 223.272 549.0660000000004 223.272Q549.4400000000004 223.272 549.7970000000004 223.33999999999997Q550.1540000000003 223.408 550.5280000000004 223.51V227.454Q550.0180000000004 227.318 549.5250000000003 227.233Q549.0320000000004 227.148 548.5560000000004 227.148Q547.1280000000004 227.148 546.2610000000004 227.675Q545.3940000000003 228.202 544.9350000000004 228.882Q544.4760000000003 229.562 544.3230000000003 230.24200000000002Q544.1700000000004 230.922 544.1700000000004 231.262V240.0H540.0900000000004Z"/><path d="M554.6760000000004 214.296H558.7560000000004V230.446L565.0460000000004 223.68H570.2820000000004L563.2780000000004 231.09199999999998L570.7240000000004 240.0H565.3180000000003L558.8240000000004 231.67H558.7560000000004V240.0H554.6760000000004Z"/><path d="M598.6380000000004 237.552H598.5700000000004Q597.6860000000004 239.048 596.1900000000004 239.728Q594.6940000000004 240.408 592.9600000000004 240.408Q591.0560000000004 240.408 589.5770000000005 239.745Q588.0980000000004 239.082 587.0440000000003 237.926Q585.9900000000004 236.77 585.4460000000004 235.20600000000002Q584.9020000000004 233.642 584.9020000000004 231.84Q584.9020000000004 230.038 585.4800000000005 228.474Q586.0580000000004 226.91 587.0950000000005 225.75400000000002Q588.1320000000004 224.598 589.5940000000004 223.935Q591.0560000000004 223.272 592.7900000000004 223.272Q593.9460000000004 223.272 594.8300000000004 223.51Q595.7140000000004 223.748 596.3940000000005 224.122Q597.0740000000004 224.496 597.5500000000004 224.921Q598.0260000000004 225.346 598.3320000000004 225.754H598.4340000000004V214.296H602.5140000000004V240.0H598.6380000000004ZM588.9820000000004 231.84Q588.9820000000004 232.792 589.3050000000004 233.676Q589.6280000000004 234.56 590.2570000000004 235.24Q590.8860000000004 235.92 591.7700000000004 236.32799999999997Q592.6540000000005 236.736 593.7760000000004 236.736Q594.8980000000004 236.736 595.7820000000004 236.32799999999997Q596.6660000000004 235.92 597.2950000000004 235.24Q597.9240000000004 234.56 598.2470000000004 233.676Q598.5700000000004 232.792 598.5700000000004 231.84Q598.5700000000004 230.888 598.2470000000004 230.00400000000002Q597.9240000000004 229.12 597.2950000000004 228.44Q596.6660000000004 227.76 595.7820000000004 227.35199999999998Q594.8980000000004 226.944 593.7760000000004 226.944Q592.6540000000005 226.944 591.7700000000004 227.35199999999998Q590.8860000000004 227.76 590.2570000000004 228.44Q589.6280000000004 229.12 589.3050000000004 230.00400000000002Q588.9820000000004 230.888 588.9820000000004 231.84Z"/><path d="M618.6980000000003 237.756H618.5960000000003Q617.7120000000003 239.15 616.3520000000003 239.779Q614.9920000000004 240.408 613.3600000000004 240.408Q612.2380000000004 240.408 611.1670000000004 240.10199999999998Q610.0960000000003 239.796 609.2630000000004 239.184Q608.4300000000004 238.572 607.9200000000004 237.654Q607.4100000000004 236.736 607.4100000000004 235.512Q607.4100000000004 234.186 607.8860000000004 233.251Q608.3620000000004 232.316 609.1610000000004 231.687Q609.9600000000004 231.058 611.0140000000004 230.684Q612.0680000000003 230.31 613.2070000000003 230.123Q614.3460000000003 229.936 615.5020000000004 229.885Q616.6580000000004 229.834 617.6780000000003 229.834H618.6980000000003V229.392Q618.6980000000003 227.862 617.6440000000003 227.09699999999998Q616.5900000000004 226.332 614.9580000000004 226.332Q613.6660000000004 226.332 612.5440000000003 226.791Q611.4220000000004 227.25 610.6060000000003 228.032L608.4640000000004 225.89Q609.8240000000004 224.496 611.6430000000004 223.88400000000001Q613.4620000000003 223.272 615.4000000000004 223.272Q617.1340000000004 223.272 618.3240000000003 223.663Q619.5140000000004 224.054 620.2960000000004 224.666Q621.0780000000004 225.278 621.5030000000004 226.077Q621.9280000000003 226.876 622.1150000000004 227.692Q622.3020000000004 228.508 622.3360000000004 229.27300000000002Q622.3700000000003 230.038 622.3700000000003 230.61599999999999V240.0H618.6980000000003ZM618.4600000000004 232.69H617.6100000000004Q616.7600000000003 232.69 615.7060000000004 232.75799999999998Q614.6520000000004 232.826 613.7170000000003 233.08100000000002Q612.7820000000004 233.336 612.1360000000004 233.829Q611.4900000000004 234.322 611.4900000000004 235.206Q611.4900000000004 235.784 611.7450000000003 236.175Q612.0000000000003 236.566 612.4080000000004 236.83800000000002Q612.8160000000004 237.11 613.3260000000004 237.229Q613.8360000000004 237.348 614.3460000000003 237.348Q616.4540000000004 237.348 617.4570000000003 236.34500000000003Q618.4600000000004 235.342 618.4600000000004 233.608Z"/><path d="M625.9060000000004 223.68H630.3940000000005L634.9500000000004 235.002H635.0180000000005L639.0980000000004 223.68H643.3480000000004L635.6300000000005 243.502Q635.1880000000004 244.658 634.6610000000005 245.52499999999998Q634.1340000000005 246.392 633.4200000000005 246.987Q632.7060000000005 247.582 631.7370000000005 247.87099999999998Q630.7680000000005 248.16 629.4080000000005 248.16Q627.8100000000004 248.16 626.2800000000004 247.752L626.7900000000004 244.08Q627.2660000000004 244.25 627.7930000000003 244.369Q628.3200000000004 244.488 628.8640000000004 244.488Q629.6120000000004 244.488 630.1220000000004 244.352Q630.6320000000004 244.216 630.9890000000005 243.92700000000002Q631.3460000000005 243.638 631.5840000000005 243.179Q631.8220000000005 242.72 632.0940000000004 242.074L632.8760000000004 240.136Z"/><path d="M655.8260000000004 228.202Q654.6360000000004 226.536 652.6300000000005 226.536Q651.8140000000004 226.536 651.0320000000004 226.94400000000002Q650.2500000000005 227.352 650.2500000000005 228.27Q650.2500000000005 229.018 650.8960000000004 229.358Q651.5420000000004 229.698 652.5280000000004 229.936Q653.5140000000004 230.174 654.6530000000004 230.429Q655.7920000000004 230.684 656.7780000000004 231.211Q657.7640000000004 231.738 658.4100000000003 232.656Q659.0560000000004 233.574 659.0560000000004 235.172Q659.0560000000004 236.634 658.4270000000004 237.637Q657.7980000000005 238.64 656.7950000000004 239.252Q655.7920000000004 239.864 654.5340000000003 240.136Q653.2760000000004 240.408 652.0180000000004 240.408Q650.1140000000004 240.408 648.5160000000003 239.86399999999998Q646.9180000000003 239.32 645.6600000000004 237.892L648.3800000000005 235.342Q649.1620000000004 236.226 650.0630000000003 236.787Q650.9640000000004 237.348 652.2560000000004 237.348Q652.6980000000004 237.348 653.1740000000004 237.246Q653.6500000000004 237.144 654.0580000000004 236.906Q654.4660000000003 236.668 654.7210000000005 236.311Q654.9760000000005 235.954 654.9760000000005 235.478Q654.9760000000005 234.628 654.3300000000004 234.22Q653.6840000000004 233.812 652.6980000000004 233.55700000000002Q651.7120000000004 233.302 650.5730000000004 233.08100000000002Q649.4340000000004 232.86 648.4480000000004 232.36700000000002Q647.4620000000004 231.874 646.8160000000005 230.99Q646.1700000000004 230.106 646.1700000000004 228.542Q646.1700000000004 227.182 646.7310000000004 226.17899999999997Q647.2920000000004 225.176 648.2100000000004 224.53Q649.1280000000004 223.88400000000001 650.3180000000004 223.578Q651.5080000000004 223.272 652.7320000000004 223.272Q654.3640000000004 223.272 655.9620000000004 223.833Q657.5600000000004 224.394 658.5460000000004 225.754Z"/><path d="M663.5780000000004 237.62Q663.5780000000004 236.532 664.3770000000004 235.75Q665.1760000000004 234.968 666.2980000000005 234.968Q667.3860000000004 234.968 668.2020000000005 235.716Q669.0180000000004 236.464 669.0180000000004 237.552Q669.0180000000004 238.64 668.2190000000004 239.422Q667.4200000000004 240.204 666.2980000000005 240.204Q665.7540000000005 240.204 665.2610000000004 240.0Q664.7680000000004 239.796 664.3940000000005 239.45600000000002Q664.0200000000004 239.116 663.7990000000004 238.64Q663.5780000000004 238.164 663.5780000000004 237.62Z"/></g>
</g><g transform="translate(520 1065) scale(1.2)"><g opacity="1">
<path d="M0 -12 L2.64 -2.64 L12 0 L2.64 2.64 L0 12 L-2.64 2.64 L-12 0 L-2.64 -2.64 Z" fill="#FFC94A"/>
</g><circle cx="40" cy="0" r="5" fill="#FFC94A"/><circle cx="60" cy="0" r="7" fill="#FFC94A"/><circle cx="82" cy="0" r="5" fill="#FFC94A"/><g opacity="1">
<path d="M124 -12 L126.64 -2.64 L136 0 L126.64 2.64 L124 12 L121.36 2.64 L112 0 L121.36 -2.64 Z" fill="#FFC94A"/>
</g></g></svg>
